<svg xmlns="http://www.w3.org/2000/svg" viewBox="14.431599617004395 44.957000732421875 470.6116638183594 404.2430114746094"><g><svg transform="" id="bam-evp-field-svg" width="500" height="500" version="1.1" xmlns="http://www.w3.org/2000/svg" xmlns:xlink="http://www.w3.org/1999/xlink" x="0px" y="0px" viewBox="0 0 250 250" style="enable-background:new 0 0 250 250;" xml:space="preserve"><style type="text/css">.st0{fill:#5B5B5B;}.st1{fill:#7F7F7F;}.st2{fill:#FFEC5F;}.st3{fill:#b2dfdb;}.st4{font-family:'Roboto Condensed';}.st5{font-size:11px;}.st6{fill:#fff; stroke: #e2e2e2; stroke-width: 0.5;}.st7{fill:#c2c2c2;stroke:#FFFFFF;stroke-width:0.75;}.st8{fill:none;stroke:#c2c2c2;stroke-width:0.75;}.st9{fill:#c2c2c2;stroke:#FFFFFF;stroke-width:0.75;stroke-miterlimit:4;}.st10{fill:#c2c2c2;stroke:#FFFFFF;stroke-width:0.75;stroke-miterlimit:4.0004;}</style><g id="KCR"><g id="compass" visibility="hidden"><polygon class="st0" points="232.8,206.4 225.7,200.5 221.8,193.5 228.2,198.4 "></polygon><path class="st1" d="M237.2,211.2c-6.4,5.6-16.3,4.9-21.9-1.5c-5.6-6.4-4.9-16.3,1.5-21.9c6.4-5.6,16.3-4.9,21.9,1.5C244.3,195.8,243.7,205.6,237.2,211.2z M217.7,188.8c-5.9,5.1-6.5,14.1-1.4,20c5.1,5.9,14.1,6.5,20,1.4c5.9-5.1,6.5-14.1,1.4-20C232.6,184.3,223.6,183.7,217.7,188.8z"></path><path class="st0" d="M227.2,196.6c1.6,0.1,2.9,1.5,2.8,3.2c-0.1,1.6-1.5,2.9-3.2,2.8c-1.6-0.1-2.9-1.5-2.8-3.2C224.2,197.7,225.6,196.4,227.2,196.6z"></path><g><path class="st0" d="M220,193.3l-2-2.3l0.4-0.3l2.5,0.7l0,0l-1.4-1.6l0.4-0.3l2,2.3l-0.4,0.3l-2.5-0.7l0,0l1.4,1.6L220,193.3z"></path></g><path class="st2" d="M227.1,197.9c0.9,0.1,1.6,0.9,1.5,1.8c-0.1,0.9-0.9,1.6-1.8,1.5c-0.9-0.1-1.6-0.9-1.5-1.8C225.4,198.5,226.2,197.8,227.1,197.9z"></path></g><g id="distances" visibility="visible"><text id="right" transform="matrix(1 0 0 1 223.2178 111.8696)" class="st3 st4 st5">330</text><g id="right-center"><text transform="matrix(1 0 0 1 188.6943 54.0254)" class="st3 st4 st5">387</text></g><text id="center" transform="matrix(1 0 0 1 94.6968 32.4785)" class="st3 st4 st5">410</text><g id="left-center"><text transform="matrix(1 0 0 1 45.7861 53.0264)" class="st3 st4 st5">387</text></g><text id="left" transform="matrix(1 0 0 1 7.2158 111.8696)" class="st3 st4 st5">330</text></g><g id="field" transform="translate(0 0) scale(1)"><path id="Outfield_1_" class="st6" d="M125.1,224.6c-17.7,0-27.7-12.3-27.7-12.3S75,177.8,68.3,173c-11.5-8.2-39.2-64.6-39.2-64.6l-0.5-1.6l-1.4-4.9L27,98.1l0.4-3.3l0.8-2.9l1.3-2.5l1.7-2l1.8-2l1.8-2l1.8-2l1.8-2l1.8-2.1l1.8-2.1l1.8-2.2l1.8-2.1l1.9-2.1l1.9-2.1l2.1-1.9l2.2-1.8l2.2-1.8l2.2-1.8l2.2-1.8l2.3-1.7l2.3-1.7l2.4-1.6l2.4-1.6l2.5-1.6l2.5-1.6l2.5-1.5l2.6-1.4l2.6-1.4l2.7-1.3l2.7-1.3l2.7-1.2l2.8-1l2.8-1.1l2.8-0.9l2.9-0.8l2.9-0.8l2.9-0.6l2.9-0.5l2.9-0.5l3-0.4l3-0.2l3-0.1l3,0l3,0l3,0.1l3,0.4l3,0.4l3,0.3l2.9,0.6l2.9,0.6l2.9,0.6l2.9,0.9l2.8,1l2.8,1.1l2.8,1.1l2.7,1.3l2.6,1.4l2.6,1.4l2.6,1.4l2.6,1.4l2.6,1.4l2.5,1.5l2.4,1.6l2.4,1.6l2.4,1.6l2.4,1.6l2.3,1.7l2.2,1.8l2.2,1.8l2.2,1.8l2.2,1.8l2,2l1.9,2.1l1.9,2.1l1.9,2.1l1.9,2.1l1.8,2l1.8,2l1.8,2l1.8,2l1.8,2l1.7,2l1.7,2l1.1,2.7l0.8,3l0.4,3.3l-0.3,3.9l-1.4,4.8l-1.9,6.3c-5.8,14.5-30.4,52.6-39,57.8c-8.6,5.1-26.7,40.6-26.7,40.6S142.8,224.6,125.1,224.6z"></path><path id="grass_1_" class="st3" d="M126.1,216.6c-9.8,0-17.4-3.5-21.2-6.4c-5-3.8-30.9-43.6-30.9-43.6l-13.4-18.8l-24.1-42.5l-1.4-4.7L35,98.3l0.2-2.1l0.4-1.5l0.5-0.9l1.1-1.3l1.7-1.9l3.6-4.1l1.8-2.1l1.8-2.1l1.9-2.2l1.8-2.1l1.8-2.1l1.8-2l1.6-1.8l1.7-1.5l2.1-1.7l4.2-3.5l2.1-1.7l2.2-1.7l2.1-1.6l4.5-3.1l4.7-3l2.4-1.4l2.4-1.4l2.4-1.3l5.1-2.5l2.4-1.1l5.1-1.9l2.5-0.8l5.2-1.5l2.4-0.5l5.7-0.9l2.6-0.4l2.6-0.2l2.6-0.1l5.7,0.1l2.5,0.1l8.1,1l2.5,0.6l5.4,1.2l2.3,0.7l2.6,0.9l5.2,2l2.3,1.1l12.6,6.7l2.1,1.3l9.4,6.3l2,1.5l8.4,6.8l1.6,1.5l1.7,1.9l1.9,2.2l1.9,2.1l7.3,8.1l1.8,2l1.7,2l1.6,1.9l0.9,1l0.4,1l0.5,2l0.3,2l-0.2,2.3l-1.1,4l-1.8,5.9c-3,7.4-8.4,15.8-12.7,22.6c-4.7,7.3-9.7,15.3-9.7,15.3l-12.8,15.7L158,192.8c0,0-9.7,13.5-12.3,15.9S135.6,216.6,126.1,216.6z"></path><path id="infield_sand_1_" class="st6" d="M163,165.8c-0.2,0.2-6-28.1-37.1-28.1c-33.4,0-39,25.5-39.5,28.1l-0.4,0.4l14.8,14.8l0.7-0.7l18.2,17.9c-0.7,1-1.1,2.2-1.1,3.6c0,1.2,0.4,2.4,1,3.4c0,0,0,0,0,0.1c1.1,1.8,3.1,3,5.4,3c3.5,0,6.4-2.9,6.4-6.4c0-1.5-0.5-2.8-1.3-3.9l18.7-17.7l1.5,0.5l13.5-13.5L163,165.8z M128.6,196.7c-1-0.7-2.3-1.2-3.7-1.2c-1.5,0-2.8,0.5-3.9,1.3l-17.6-18.2c0,0,6.2-5.6,2.7-10.2l17.4-14.5c0.5-0.3,1.1-0.4,1.8-0.4c0.9,0,1.7,0.5,2.3,1.1c0,0,0.1,0,0.1,0.1l16.2,15.5c-0.5,1,0.1,6.3,3,8.9L128.6,196.7z"></path></g><g id="persistent_1_"><g id="mound_1_"><path id="pitching-mound_1_" class="st6" d="M122.5,174.7c-1.5,1.5-1.5,3.9,0,5.4s3.9,1.5,5.4,0c1.5-1.5,1.5-3.9,0-5.4C126.5,173.2,124,173.2,122.5,174.7z"></path><rect id="pitching-rubber_1_" x="123.2" y="176.6" class="st7" width="4" height="1.6"></rect></g><g id="lines_1_"><line id="left-foul-line_1_" class="st8" x1="125.2" y1="203.2" x2="28.1" y2="106.1"></line><line id="right-foul-line_1_" class="st8" x1="125.2" y1="203.2" x2="222.3" y2="106"></line></g><g id="bases_1_"><rect id="third-base_1_" x="98.4" y="174.5" transform="matrix(0.7073 -0.7069 0.7069 0.7073 -95.1992 122.1442)" class="st9" width="3" height="3"></rect><rect id="first-base_1_" x="148.9" y="174.5" transform="matrix(0.7073 -0.7069 0.7069 0.7073 -80.4168 157.8396)" class="st9" width="3" height="3"></rect><rect id="second-base_1_" x="123.7" y="149.3" transform="matrix(0.707 -0.7073 0.7073 0.707 -69.9813 132.7504)" class="st10" width="3" height="3"></rect><polygon id="home_1_" class="st7" points="126.7,201.8 125.2,203.4 123.7,201.8 123.7,200.3 126.7,200.3 "></polygon></g></g></g></svg></g></svg>