<svg xmlns="http://www.w3.org/2000/svg" viewBox="8.166000366210938 47.929603576660156 477.00054931640625 401.2559509277344"><g id="evp-venue-svg"><svg id="_x34_705" xmlns="http://www.w3.org/2000/svg" xmlns:xlink="http://www.w3.org/1999/xlink" x="0px" y="0px" viewBox="0 0 250 250" xml:space="preserve" width="500" height="500"><style type="text/css">
	.st0{fill:#5B5B5B;}
	.st1{fill:#7F7F7F;}
	.st2{fill:#FFEC5F;}
	.st3{fill:#68836A;}
	.st4{font-family:'ArialMT';}
	.st5{font-size:11px;}
	.st6{fill:#A88B49;}
	.st7{fill:#FFFFFF;stroke:#FFFFFF;stroke-width:0.75;}
	.st8{fill:none;stroke:#FFFFFF;stroke-width:0.75;}
	.st9{fill:#FFFFFF;stroke:#FFFFFF;stroke-width:0.75;stroke-miterlimit:4;}
	.st10{fill:#FFFFFF;stroke:#FFFFFF;stroke-width:0.75;stroke-miterlimit:4.0018;}
</style><g id="ATL"><g id="compass"><path class="st0" d="M230.3,191.2l-1.8,9l-4.3,6.8l1.3-8L230.3,191.2z"></path><path class="st1" d="M232.5,185c8,3,12.1,12,9.1,20s-12,12.1-20,9.1s-12.1-12-9.1-20S224.5,182,232.5,185z M222,212.8 c7.3,2.7,15.5-1,18.3-8.3c2.7-7.3-1-15.5-8.3-18.3c-7.3-2.7-15.5,1-18.3,8.3C211,201.9,214.7,210.1,222,212.8z"></path><path class="st0" d="M224.3,200.7c-0.7-1.5,0-3.3,1.5-3.9c1.5-0.7,3.3,0,3.9,1.5c0.7,1.5,0,3.3-1.5,3.9 C226.8,202.9,225,202.2,224.3,200.7z M224.9,208.6l-1.1,2.9l-0.4-0.2l-0.6-2.5l-0.7,2l-0.5-0.2l1.1-2.9l0.4,0.2l0.6,2.5l0.7-2 L224.9,208.6z"></path><path class="st2" d="M225.5,200.2c-0.4-0.8,0-1.8,0.8-2.2s1.8,0,2.2,0.8s0,1.8-0.8,2.2S225.9,201,225.5,200.2z"></path></g><g id="distances"><text id="right" transform="matrix(1 0 0 1 224.21 117.2139)" class="st3 st4 st5">325</text><text id="right-center_1_" transform="matrix(1 0 0 1 189.2979 64.1982)" class="st3 st4 st5">375</text><text id="center" transform="matrix(1 0 0 1 116.4307 33.9648)" class="st3 st4 st5">400</text><text id="left-center_1_" transform="matrix(1 0 0 1 45.6475 53.3066)" class="st3 st4 st5">385</text><text id="left-left-center_1_" transform="matrix(1 0 0 1 20.3818 71.5596)" class="st3 st4 st5">375</text><text id="left" transform="matrix(1 0 0 1 4.083 114.4629)" class="st3 st4 st5">335</text></g><g id="field"><path id="Outfield_1_" class="st6" d="M222.4,111.8l-16.8,16.6c2.2,6.9,0.9,8.5-3.5,14.3c-5.8,7.2-59.8,72.7-59.8,72.7 s-15.9,20-33.6,1c0,0-61.2-72.7-63.9-77.1c-2.4-3.9-4.8-6.9-1.5-11.1l-19-18.4v-1l1.2-2.4l1-1.7l1.1-2.4l1.1-2.4l1.1-2.4l1.1-2.5 l1.2-2.5l1.2-2.6l1.2-2.6l1.2-2.7l1.2-2.7l1.3-2.8l1.3-2.8l1.3-2.9l1.3-2.9l2.1-1.8l2.3-1.6l2.3-1.6l2.3-1.6l2.3-1.6l2.3-1.6 l2.3-1.6l2.3-1.6l2.3-1.6l2.5-1.4l2.6-1.1l2.6-1.1l2.6-1.1l2.6-1.1l2.6-1.1l2.6-1.1l2.6-1.1l2.6-1.1l2.7-1.1l2.7-1.1l2.7-1.1 l2.7-1.1l2.7-1.1l2.7-1.1l2.8-1.1l2.8-1.2l2.9-0.4h29l2.9,0.3l2.8,1.4l2.7,1.4l2.7,1.4l2.7,1.4l2.6,1.4l2.6,1.4l2.6,1.3l2.6,1.3 l2.5,1.3l2.5,1.3l2.5,1.3l2.5,1.3l2.5,1.3l2.5,1.3l2.4,1.3l2.4,1.3l2.2,1.9l1.9,2.5l1.8,2.5l1.8,2.4l1.7,2.4l1.7,2.3l1.7,2.3 l1.7,2.3l1.6,2.2l1.6,2.2l1.6,2.2l1.6,2.1l1.6,2.1l1.5,2.1l1.5,2.1l1.5,2l1.5,2l1.5,2l1.5,2l1.4,2l1.4,1.9l1.4,1.9l1.4,1.9 l0.5,0.4l1.5,2L222.4,111.8L222.4,111.8z"></path><path id="grass_1_" class="st3" d="M124.7,216.6c-3.3,0-6.6-1.9-10.1-5.5l-61-71.9c-1.1-1.9-4.4-4.7-4.1-8.6l1.2-4.6l-17-18 l14.9-32.7l0.5-0.4l17.6-12.2l1.7-0.9l41.2-17.1l1.3-0.2l28.2,0.2l1,0.1L179,65.1l0.8,0.7l32.8,44.5l-13.4,13.3l1.5,3.6 c1.4,4.4,0.6,9.3-2.2,13c-6.3,7.7-61.8,69.4-62.4,70.1C136.1,210.3,131.6,216.6,124.7,216.6L124.7,216.6z"></path><path id="infield_sand" class="st6" d="M163.9,166.7l-1-1c-5-16-20-27.7-37.7-27.7s-32.7,11.7-37.7,27.7l-1,1l32.7,32.7 c-0.5,0.9-0.7,1.9-0.7,3c0,3.7,3,6.7,6.7,6.7s6.7-3,6.7-6.7c0-1.1-0.3-2.1-0.7-3L163.9,166.7z M122.5,154.7 c0.8,0.5,1.7,0.8,2.7,0.8s1.9-0.3,2.7-0.8l16.8,16.8c-1.6,1.6-1.6,4.1,0,5.6l2.5,2.5l-17.7,17.7c-1.2-1-2.7-1.6-4.3-1.6 s-3.2,0.6-4.3,1.6l-17.7-17.7l2.5-2.5c1.6-1.5,1.6-4,0-5.6L122.5,154.7z"></path></g><g id="persistent"><g id="mound"><path id="pitching-mound" class="st6" d="M122.5,174.7c-1.5,1.5-1.5,3.9,0,5.4s3.9,1.5,5.4,0c1.5-1.5,1.5-3.9,0-5.4 C126.5,173.2,124,173.2,122.5,174.7z"></path><path id="pitching-rubber" class="st7" d="M123.2,176.6h4v1.6h-4V176.6z"></path></g><g id="lines"><path id="left-foul-line_2_" class="st8" d="M125.2,203.2l-98.7-98.6"></path><path id="right-foul-line_1_" class="st8" d="M125.2,203.2l95.5-95.5"></path></g><g id="bases_2_"><rect id="third-base_2_" x="99.2" y="175.1" transform="matrix(0.7073 -0.7069 0.7069 0.7073 -95.3473 122.8833)" class="st9" width="3" height="3"></rect><rect id="first-base_2_" x="148.1" y="175.2" transform="matrix(0.7073 -0.7069 0.7069 0.7073 -81.1078 157.4629)" class="st9" width="3" height="3"></rect><rect id="second-base_2_" x="123.7" y="148.6" transform="matrix(0.707 -0.7073 0.7073 0.707 -69.4796 132.5406)" class="st10" width="3" height="3"></rect><polygon id="home_2_" class="st7" points="126.7,201.8 125.2,203.4 123.7,201.8 123.7,200.3 126.7,200.3  "></polygon></g></g></g></svg><style>
                        .st3{fill:#b2dfdb;}
                        .st4{font-family:'Roboto Condensed';}
                        .st6{fill:#fff; stroke: #e2e2e2; stroke-width: 0.5;}
                        .st7{fill:#c2c2c2;stroke:#FFFFFF;stroke-width:0.75;}
                        .st8{fill:none;stroke:#c2c2c2;stroke-width:0.75;}
                        .st9{fill:#c2c2c2;stroke:#FFFFFF;stroke-width:0.75;stroke-miterlimit:4;}
                        #compass {visibility: hidden;}
                        #distances {visibility: visible;}
                        #TEX .st0{fill:#b2dfdb;}
                        #TEX .st3{fill:#5b5b5b;}
                        #TEX .st0{font-family:'Roboto Condensed';}
                    </style></g></svg>