<svg xmlns="http://www.w3.org/2000/svg" viewBox="31.959999084472656 44.908203125 453.090576171875 401.745849609375"><g id="evp-venue-svg"><svg id="_x33__1_" xmlns="http://www.w3.org/2000/svg" xmlns:xlink="http://www.w3.org/1999/xlink" x="0px" y="0px" viewBox="0 0 250 250" xml:space="preserve" width="500" height="500"><style type="text/css">
	.st0{fill:#5B5B5B;}
	.st1{fill:#7F7F7F;}
	.st2{fill:#FFEC5F;}
	.st3{fill:#68836A;}
	.st4{font-family:'ArialMT';}
	.st5{font-size:11px;}
	.st6{fill:#A88B49;}
	.st7{fill:#FFFFFF;stroke:#FFFFFF;stroke-width:0.75;}
	.st8{fill:none;stroke:#FFFFFF;stroke-width:0.75;}
	.st9{fill:#FFFFFF;stroke:#FFFFFF;stroke-width:0.75;stroke-miterlimit:4;}
	.st10{fill:#FFFFFF;stroke:#FFFFFF;stroke-width:0.75;stroke-miterlimit:4.0018;}
</style><g id="BOS"><g id="compass"><path class="st0" d="M232.9,206.3l-7.2-5.8l-4-6.9l6.5,4.8L232.9,206.3z"></path><path class="st1" d="M237.4,211.1c-6.4,5.7-16.2,5.2-21.9-1.2s-5.2-16.2,1.2-21.9s16.2-5.2,21.9,1.2 C244.3,195.5,243.7,205.4,237.4,211.1z M217.6,189c-5.8,5.2-6.3,14.2-1.1,20s14.2,6.3,20,1.1s6.3-14.2,1.1-20 C232.4,184.2,223.4,183.7,217.6,189z"></path><path class="st0" d="M227.2,196.6c1.6,0.1,2.9,1.5,2.8,3.1c-0.1,1.6-1.5,2.9-3.1,2.8c-1.6-0.1-2.9-1.5-2.8-3.1 C224.1,197.7,225.5,196.5,227.2,196.6z M219.9,193.4l-2.1-2.3l0.3-0.3l2.5,0.6l-1.4-1.6l0.4-0.3l2.1,2.3l-0.3,0.3l-2.5-0.6 l1.4,1.6L219.9,193.4z"></path><path class="st2" d="M227.1,197.9c0.9,0,1.6,0.8,1.6,1.7c-0.1,0.9-0.8,1.6-1.7,1.6c-0.9-0.1-1.6-0.8-1.6-1.7 C225.4,198.5,226.2,197.8,227.1,197.9z"></path></g><g id="distances"><text id="right" transform="matrix(1 0 0 1 132.1328 32.4541)" class="st3 st4 st5">420</text><text id="right-center_1_" transform="matrix(1 0 0 1 82.2178 46.2109)" class="st3 st4 st5">379</text><text id="center_1_" transform="matrix(1 0 0 1 214.7891 123)" class="st3 st4 st5">302</text><text id="left-center_1_" transform="matrix(1 0 0 1 222.8662 77.126)" class="st3 st4 st5">380</text><text id="left" transform="matrix(1 0 0 1 15.98 109.7246)" class="st3 st4 st5">310</text></g><g id="field"><path id="Outfield_1_" class="st6" d="M72.1,173.9l-3.7-26.2l-34.2-35.4l1.6-1.6l1.6-1.6l1.6-1.6l1.6-1.6l1.6-1.6l1.6-1.6l1.6-1.6 l1.6-1.6l1.6-1.6l1.6-1.6l1.7-1.6l1.7-1.6l1.7-1.6L57,90l1.7-1.7l1.7-1.7l1.7-1.7l1.8-1.7l1.8-1.7l1.8-1.7l1.8-1.8l1.8-1.8 l1.9-1.8l1.9-1.8l1.9-1.9l1.9-1.9l2-1.9l2-2l2.1-2l2.1-2l2.1-2.1l2.2-2.1l2.2-2.2l2.3-2.2L98,50l2.4-2.3l2.5-1.9h2.8l2.8-0.2 l2.7-0.7l2.7-0.7l2.7-0.7l2.8-0.7l2.8-0.7l2.8-0.7l2.8-0.7l2.9-0.8l2.9-0.8l2.9-0.8l3-0.8l3-0.8l3-0.8l3.1-0.8l3.1-0.8l3.2-0.8 l3.2-0.8l2.2,4l1.6,6.1l1.5,5.7l2.5,1.6l2.5,1.2l2.5,1.2l2.5,1.2l2.5,1.2l2.5,1.2l2.5,1.2l2.5,1.2l2.5,1.2l2.5,1.2l2.5,1.2 l2.5,1.2l2.5,1.2l2.5,1.2l2.5,1.2l2.5,1.2l2.5,1.2l2.5,1.2l2.5,1.2l2.5,1.2l2.5,1.2l2.4,1.3l2.2,1.7l1.9,2.1l1.5,2.6l1,3.1 l0.2,3.9l-1.4,5.6l-3.9,7.9l-3.5,7.1l-3.1,6.3l-23.7,27l-18.1,36.1c0,0-30.6,37.8-33.4,41.6c-2.8,3.8-20.4,3.9-23.9,0.3 C110.4,216.6,72.1,173.9,72.1,173.9z"></path><path id="grass_1_" class="st3" d="M80.2,171.3L75.9,144l-30.5-31.5l56.6-54l40.4-11.4l69.7,33.5l1.6,0.9l1.1,0.9l0.9,1l0.6,1.1 l0.4,1.3l0.1,1.6l-0.9,3.6l-7,14.2l-2.7,5.5L179.5,144l-15.7,33.5c0,0-29.2,35.1-30.4,36.6c-2.3,3-12,3.4-15,0.2 S80.2,171.3,80.2,171.3L80.2,171.3z"></path><path id="infield_sand" class="st6" d="M163.9,166.7l-1-1c-5-16-20-27.7-37.7-27.7s-32.7,11.7-37.7,27.7l-1,1l32.7,32.7 c-0.5,0.9-0.7,1.9-0.7,3c0,3.7,3,6.7,6.7,6.7s6.7-3,6.7-6.7c0-1.1-0.3-2.1-0.7-3L163.9,166.7z M122.5,154.7 c0.8,0.5,1.7,0.8,2.7,0.8s1.9-0.3,2.7-0.8l16.8,16.8c-1.6,1.6-1.6,4.1,0,5.6l2.5,2.5l-17.7,17.7c-1.2-1-2.7-1.6-4.3-1.6 s-3.2,0.6-4.3,1.6l-17.7-17.7l2.5-2.5c1.6-1.5,1.6-4,0-5.6L122.5,154.7z"></path></g><g id="persistent_1_"><g id="mound_1_"><path id="pitching-mound_1_" class="st6" d="M122.5,174.7c-1.5,1.5-1.5,3.9,0,5.4s3.9,1.5,5.4,0c1.5-1.5,1.5-3.9,0-5.4 C126.5,173.2,124,173.2,122.5,174.7z"></path><path id="pitching-rubber_1_" class="st7" d="M123.2,176.6h4v1.6h-4V176.6z"></path></g><g id="lines_1_"><path id="left-foul-line_2_" class="st8" d="M125.2,203.2l-91-91"></path><path id="right-foul-line_2_" class="st8" d="M125.2,203.2l88-88"></path></g><g id="bases_2_"><rect id="third-base_2_" x="99.2" y="175.1" transform="matrix(0.7073 -0.7069 0.7069 0.7073 -95.3473 122.8833)" class="st9" width="3" height="3"></rect><rect id="first-base_2_" x="148.1" y="175.2" transform="matrix(0.7073 -0.7069 0.7069 0.7073 -81.1078 157.4629)" class="st9" width="3" height="3"></rect><rect id="second-base_2_" x="123.7" y="148.6" transform="matrix(0.707 -0.7073 0.7073 0.707 -69.4796 132.5406)" class="st10" width="3" height="3"></rect><polygon id="home_2_" class="st7" points="126.7,201.8 125.2,203.4 123.7,201.8 123.7,200.3 126.7,200.3  "></polygon></g></g></g></svg><style>
                        .st3{fill:#b2dfdb;}
                        .st4{font-family:'Roboto Condensed';}
                        .st6{fill:#fff; stroke: #e2e2e2; stroke-width: 0.5;}
                        .st7{fill:#c2c2c2;stroke:#FFFFFF;stroke-width:0.75;}
                        .st8{fill:none;stroke:#c2c2c2;stroke-width:0.75;}
                        .st9{fill:#c2c2c2;stroke:#FFFFFF;stroke-width:0.75;stroke-miterlimit:4;}
                        #compass {visibility: hidden;}
                        #distances {visibility: visible;}
                        #TEX .st0{fill:#b2dfdb;}
                        #TEX .st3{fill:#5b5b5b;}
                        #TEX .st0{font-family:'Roboto Condensed';}
                    </style></g></svg>