<svg xmlns="http://www.w3.org/2000/svg" viewBox="17.468799591064453 45.238197326660156 467.6658935546875 407.84075927734375"><g id="evp-venue-svg"><svg id="_x32_602" xmlns="http://www.w3.org/2000/svg" xmlns:xlink="http://www.w3.org/1999/xlink" x="0px" y="0px" viewBox="0 0 250 250" xml:space="preserve" width="500" height="500"><style type="text/css">
	.st0{fill:#5B5B5B;}
	.st1{fill:#7F7F7F;}
	.st2{fill:#FFEC5F;}
	.st3{fill:#68836A;}
	.st4{font-family:'ArialMT';}
	.st5{font-size:11px;}
	.st6{fill:#A88B49;}
	.st7{fill:#FFFFFF;stroke:#FFFFFF;stroke-width:0.75;}
	.st8{fill:none;stroke:#FFFFFF;stroke-width:0.75;}
	.st9{fill:#FFFFFF;stroke:#FFFFFF;stroke-width:0.75;stroke-miterlimit:4;}
	.st10{fill:#FFFFFF;stroke:#FFFFFF;stroke-width:0.75;stroke-miterlimit:4.0018;}
</style><g id="CIN"><g id="compass"><path class="st0" d="M232,192.1l-3.7,8.4l-5.6,5.7l2.9-7.5L232,192.1z"></path><path class="st1" d="M235.5,186.5c7.2,4.7,9.2,14.3,4.6,21.5c-4.7,7.2-14.3,9.2-21.5,4.6c-7.2-4.7-9.2-14.3-4.6-21.5 C218.7,183.9,228.3,181.9,235.5,186.5z M219.3,211.4c6.6,4.3,15.4,2.4,19.6-4.2c4.3-6.6,2.4-15.4-4.2-19.6 c-6.6-4.3-15.4-2.4-19.6,4.2C210.9,198.3,212.7,207.2,219.3,211.4z"></path><path class="st0" d="M224.1,200.1c-0.3-1.6,0.7-3.2,2.3-3.5s3.2,0.7,3.5,2.3s-0.7,3.2-2.3,3.5C226,202.8,224.5,201.7,224.1,200.1z  M223,208l-1.7,2.6l-0.4-0.3v-2.5l-1.2,1.8l-0.4-0.3l1.7-2.6l0.4,0.3v2.6l1.2-1.8L223,208z"></path><path class="st2" d="M225.4,199.9c-0.2-0.9,0.4-1.8,1.3-2c0.9-0.2,1.8,0.4,2,1.3c0.2,0.9-0.4,1.8-1.3,2 C226.5,201.3,225.6,200.8,225.4,199.9z"></path></g><g id="distances"><text id="right" transform="matrix(1 0 0 1 222.0479 113.9326)" class="st3 st4 st5">325</text><text id="right-center_1_" transform="matrix(1 0 0 1 179.5762 60.6973)" class="st3 st4 st5">370</text><text id="center" transform="matrix(1 0 0 1 117.5718 32.6191)" class="st3 st4 st5">404</text><text id="left-center_1_" transform="matrix(1 0 0 1 62.4883 48.8057)" class="st3 st4 st5">387</text><text id="left" transform="matrix(1 0 0 1 8.7344 102.6973)" class="st3 st4 st5">328</text></g><g id="field" transform="matrix(.98 0 0 -.98 250 420)"><path id="Outfield_1_" class="st6" d="M-147.3,207c-3.5,1.8-26.4,35.5-29.7,40.3l-9.4,27.4l-39.4,39.5l-0.2,5.6l0.6,2.9l0.6,2.9 l1.3,2.3l1.8,1.8l1.8,1.8l1.8,1.8l1.8,1.8l1.8,1.8l1.8,1.8l1.8,1.8l1.8,1.8l1.9,1.8l1.9,1.8l1.9,1.8l1.9,1.9l1.9,1.9l1.9,1.9 l2,1.9l2,1.9l2,1.9l2,2l2.1,2l2.1,2l2.1,2.1l2.1,2.1l2.2,2.1l2.2,2.2l2.2,2.2l2.3,2.2l2.4,2.2l2.7,0.9l2.8,0.8l2.8,0.8l2.8,0.8 l2.8,0.8l2.8,0.8l2.8,0.8l2.8,0.8l2.8,0.9l2.9,0.9l2.9,0.9l2.9,0.9l2.9,0.9l3,0.9l3,0.9l3-0.7l2.9-1.1l2.9-1.1l2.9-1.1l2.9-1.1 l2.8-1.2l2.8-1.2l2.8-1.2l2.7-1.3l2.7-1.3l2.7-1.3l2.6-1.4l2.6-1.4l2.5-1.4l2.5-1.5l2.4-1.6l2.4-1.6l2.4-1.6l2.4-1.6l2.3-1.6 l2.2-1.7l2.2-1.7l2.2-1.7l2.1-1.8l2.1-1.8l2.1-1.8l2-1.9l1.9-1.9l1.9-1.9l1.9-1.9l1.9-1.9l1.8-1.9l1.7-2l1.7-2l1.7-2l1.7-2 l1.7-1.9l1.7-1.9l1.6-1.9l1.6-1.9l1.6-1.9l1.5-2l1.1-2.4l1.2-2.3l1.3-2.2l-1.1-11.6c-2-3-28.4-29.5-28.4-29.5S-79,238.5-84,231.5 c-5-7.1-20.4-27.4-27.4-30.8c-7-3.3-11.6-3.7-17.1-3C-142.3,199.6-147.3,207-147.3,207z"></path><path id="grass_1_" class="st3" d="M-124.7,205.9c-0.9,0-1.9,0.1-3.2,0.2c-8.6,1-12.2,4.9-12.8,5.5l-1.1,1.8l-1.2,0.4 c-1.9,2-7.7,9.3-26.2,36.2l-0.5,0.8l-9.7,28.2l-38.5,38.6l-0.1,1.4l0.7,3.5l0.1,0.2l50.3,49l1,0.9l1,0.3l2.6,0.8l34.9,10.5 l0.4-0.1l11-4.1l2.7-1.1l2.7-1.1l2.6-1.1l7.7-3.7l2.4-1.3l2.5-1.4l2.5-1.3l2.2-1.3l7.1-4.6l2.2-1.5l2.1-1.5l4.3-3.2l2-1.6l2.1-1.7 l2.1-1.7l1.9-1.6l1.8-1.7l7.5-7.3l1.6-1.7l6.7-7.8l3.4-3.9l1.6-1.9l3.1-3.6l0.9-1.2l0.8-1.6l1.3-2.6l0.1-0.1l-0.6-6.5 c-4-4.4-15.7-16.4-26.3-27l-0.9-0.9l-0.6-1.1c-7.5-14.8-20.8-40-24.2-44.8c-9.5-13.3-20.8-26.5-24.3-28.2 C-119.9,206.2-122.5,205.9-124.7,205.9L-124.7,205.9z"></path><path id="infield_sand" class="st6" d="M-87.9,258.5l-1,1c-5.1,16.3-20.4,28.3-38.5,28.3s-33.4-11.9-38.5-28.3l-1-1l33.4-33.4 c-0.5-0.9-0.7-2-0.7-3.1c0-3.8,3.1-6.8,6.8-6.8s6.8,3.1,6.8,6.8c0,1.1-0.3,2.1-0.7,3.1L-87.9,258.5z M-130.1,270.7 c0.8-0.5,1.8-0.8,2.8-0.8s2,0.3,2.8,0.8l17.1-17.1c-1.6-1.6-1.6-4.2,0-5.7l2.6-2.6l-18-18c-1.2,1-2.7,1.6-4.4,1.6 s-3.2-0.6-4.4-1.6l-18,18l2.6,2.6c1.6,1.5,1.6,4.1,0,5.7L-130.1,270.7z"></path></g><g id="persistent_1_"><g id="mound_1_"><path id="pitching-mound_1_" class="st6" d="M122.5,174.7c-1.5,1.5-1.5,3.9,0,5.4s3.9,1.5,5.4,0c1.5-1.5,1.5-3.9,0-5.4 C126.5,173.2,124,173.2,122.5,174.7z"></path><path id="pitching-rubber_1_" class="st7" d="M123.2,176.6h4v1.6h-4V176.6z"></path></g><g id="lines_1_"><path id="left-foul-line_1_" class="st8" d="M125.2,203.2l-97.1-97.1"></path><path id="right-foul-line_2_" class="st8" d="M125.2,203.2l95.5-95.6"></path></g><g id="bases_2_"><rect id="third-base_2_" x="99.2" y="175.1" transform="matrix(0.7073 -0.7069 0.7069 0.7073 -95.3473 122.8833)" class="st9" width="3" height="3"></rect><rect id="first-base_2_" x="148.1" y="175.2" transform="matrix(0.7073 -0.7069 0.7069 0.7073 -81.1078 157.4629)" class="st9" width="3" height="3"></rect><rect id="second-base_2_" x="123.7" y="148.6" transform="matrix(0.707 -0.7073 0.7073 0.707 -69.4796 132.5406)" class="st10" width="3" height="3"></rect><polygon id="home_2_" class="st7" points="126.7,201.8 125.2,203.4 123.7,201.8 123.7,200.3 126.7,200.3  "></polygon></g></g></g></svg><style>
                        .st3{fill:#b2dfdb;}
                        .st4{font-family:'Roboto Condensed';}
                        .st6{fill:#fff; stroke: #e2e2e2; stroke-width: 0.5;}
                        .st7{fill:#c2c2c2;stroke:#FFFFFF;stroke-width:0.75;}
                        .st8{fill:none;stroke:#c2c2c2;stroke-width:0.75;}
                        .st9{fill:#c2c2c2;stroke:#FFFFFF;stroke-width:0.75;stroke-miterlimit:4;}
                        #compass {visibility: hidden;}
                        #distances {visibility: visible;}
                        #TEX .st0{fill:#b2dfdb;}
                        #TEX .st3{fill:#5b5b5b;}
                        #TEX .st0{font-family:'Roboto Condensed';}
                    </style></g></svg>