<svg xmlns="http://www.w3.org/2000/svg" viewBox="8.844799995422363 38.38180160522461 484.12982177734375 408.8182067871094"><g id="evp-venue-svg"><svg id="_x31_9" xmlns="http://www.w3.org/2000/svg" xmlns:xlink="http://www.w3.org/1999/xlink" x="0px" y="0px" viewBox="0 0 250 250" xml:space="preserve" width="500" height="500"><style type="text/css">
	.st0{fill:#5B5B5B;}
	.st1{fill:#7F7F7F;}
	.st2{fill:#FFEC5F;}
	.st3{fill:#68836A;}
	.st4{font-family:'ArialMT';}
	.st5{font-size:11px;}
	.st6{fill:#A88B49;}
	.st7{fill:#FFFFFF;stroke:#FFFFFF;stroke-width:0.75;}
	.st8{fill:none;stroke:#FFFFFF;stroke-width:0.75;}
	.st9{fill:#FFFFFF;stroke:#FFFFFF;stroke-width:0.75;stroke-miterlimit:4;}
	.st10{fill:#FFFFFF;stroke:#FFFFFF;stroke-width:0.75;stroke-miterlimit:4.0018;}
</style><g id="COL"><g id="compass"><path class="st0" d="M227.1,208.5l-1.7-9l1.4-7.9l1.8,7.8L227.1,208.5z"></path><path class="st1" d="M227.4,215c-8.5,0.2-15.7-6.6-15.8-15.2c-0.2-8.5,6.6-15.7,15.2-15.8c8.5-0.2,15.7,6.6,15.8,15.2 C242.7,207.7,235.9,214.8,227.4,215z M226.7,185.3c-7.8,0.2-14,6.7-13.9,14.5c0.2,7.8,6.7,14,14.5,13.9c7.8-0.2,14-6.7,13.9-14.5 C241,191.4,234.5,185.2,226.7,185.3z"></path><path class="st0" d="M229.1,197.4c1.2,1.1,1.2,3,0.1,4.2c-1.1,1.2-3,1.2-4.2,0.1c-1.2-1.1-1.2-3-0.1-4.2S227.9,196.2,229.1,197.4z  M225.6,190.3l-0.1-3.1h0.5l1.5,2.1v-2.1h0.5l0.1,3.1h-0.5l-1.5-2.1v2.1H225.6z"></path><path class="st2" d="M228.2,198.3c0.7,0.6,0.7,1.7,0.1,2.3c-0.6,0.7-1.7,0.7-2.3,0.1c-0.7-0.6-0.7-1.7-0.1-2.3 C226.5,197.7,227.5,197.7,228.2,198.3z"></path></g><g id="distances"><text id="right" transform="matrix(1 0 0 1 229.9873 100.9761)" class="st3 st4 st5">350</text><text id="right-center_1_" transform="matrix(1 0 0 1 189.3115 59.7378)" class="st3 st4 st5">375</text><text id="center" transform="matrix(1 0 0 1 101.5088 29.1909)" class="st3 st4 st5">415</text><text id="left-center_1_" transform="matrix(1 0 0 1 38.8613 55.2993)" class="st3 st4 st5">390</text><text id="left" transform="matrix(1 0 0 1 4.4224 117.1904)" class="st3 st4 st5">347</text></g><g id="field"><path id="Outfield_1_" class="st6" d="M19.4,105l3.4-4l1.6-2l1.6-2l1.6-2l1.6-2l1.7-2l1.7-2l1.7-2l1.7-2l1.7-2l1.7-2.1l1.7-2.1 l1.8-2.1l1.8-2.1l1.8-2.1l1.8-2.2l1.8-2.2l1.9-2.2l1.9-2.3l1.9-2.3l2-2.3l2-2.4l2-2.4l2.1-2.4l2.1-2.5l2.1-2.5l2.2-2.6l2.2-2.6 l2.3-2.7l2.3-2.8l2.7-1.8l3.1-0.3l3.1-0.3l3-0.3l3-0.3l3-0.3l3-0.3l3-0.3l3-0.3l3-0.3l3-0.3l3-0.3l3-0.3l3-0.3l3-0.3l3-0.3l3-0.3 l3-0.3l3-0.3l3.1-0.3l3.1-0.3l3.1-0.3l3.1-0.2l3,1l2.7,2.3l2.7,2.2l2.6,2.2l2.6,2.2l2.5,2.1l2.5,2.1l2.4,2l2.4,2l2.4,2l2.3,1.9 l2.3,1.9l2.3,1.9l2.2,1.9l2.2,1.8l2.2,1.8l2.2,1.8l2.1,1.8l2.1,1.8l2.1,1.8l2.1,1.7l2.1,1.7l2.1,1.7l2,1.7l2,1.7l2,1.7l2,1.7 l2,1.7l2,1.7l2,1.7l2,1.7l2,1.7l2,1.7l2,1.7l2,1.7l2,1.7l1,2.7l0.3,3.3l0.2,5.8l-21.5,21.6l0.4,3.7L189,160.3l-45.2,53.4 c0,0-7,9.9-18.9,9.9s-15.4-5.8-19-8.7l-46.1-52.7l-23.6-41.3L19.4,105z"></path><path id="grass_1_" class="st3" d="M125,215.6c-6.6,0-8.8-3.1-11.6-5.8c-0.2-0.2-3.1-0.7-5.9-2.6c-4.1-2.9-40.8-49.4-40.8-49.4 l-16.6-29.7l-19.7-23.7l3.5-4.2l48.7-58l58.4-5.1l3.1-0.3l1.4-0.1l74.4,62.2l0.2,1.8l0.1,2.1l-21.7,21.8l1.5,6.8l-17.3,28 c0,0-39.4,45.9-41.2,47.4c-1.8,1.5-6.4,2.6-6.4,2.6C134.9,209.7,132,215.6,125,215.6L125,215.6z"></path><path id="infield_sand" class="st6" d="M163.9,166.7l-1-1c-5-16-20-27.7-37.7-27.7s-32.7,11.7-37.7,27.7l-1,1l32.7,32.7 c-0.5,0.9-0.7,1.9-0.7,3c0,3.7,3,6.7,6.7,6.7s6.7-3,6.7-6.7c0-1.1-0.3-2.1-0.7-3L163.9,166.7z M122.5,154.7 c0.8,0.5,1.7,0.8,2.7,0.8s1.9-0.3,2.7-0.8l16.8,16.8c-1.6,1.6-1.6,4.1,0,5.6l2.5,2.5l-17.7,17.7c-1.2-1-2.7-1.6-4.3-1.6 s-3.2,0.6-4.3,1.6l-17.7-17.7l2.5-2.5c1.6-1.5,1.6-4,0-5.6L122.5,154.7z"></path></g><g id="persistent_1_"><g id="mound_1_"><path id="pitching-mound_1_" class="st6" d="M122.5,174.7c-1.5,1.5-1.5,3.9,0,5.4s3.9,1.5,5.4,0c1.5-1.5,1.5-3.9,0-5.4 C126.5,173.2,124,173.2,122.5,174.7z"></path><path id="pitching-rubber_1_" class="st7" d="M123.2,176.6h4v1.6h-4V176.6z"></path></g><g id="lines_1_"><path id="left-foul-line_2_" class="st8" d="M125.2,203.2l-96.5-96.5l-5.9-5.7"></path><path id="right-foul-line_1_" class="st8" d="M125.2,203.2l96.5-96.6l6.3-6.4"></path></g><g id="bases_2_"><rect id="third-base_2_" x="99.2" y="175.1" transform="matrix(0.7073 -0.7069 0.7069 0.7073 -95.3473 122.8833)" class="st9" width="3" height="3"></rect><rect id="first-base_2_" x="148.1" y="175.2" transform="matrix(0.7073 -0.7069 0.7069 0.7073 -81.1078 157.4629)" class="st9" width="3" height="3"></rect><rect id="second-base_2_" x="123.7" y="148.6" transform="matrix(0.707 -0.7073 0.7073 0.707 -69.4796 132.5406)" class="st10" width="3" height="3"></rect><polygon id="home_2_" class="st7" points="126.7,201.8 125.2,203.4 123.7,201.8 123.7,200.3 126.7,200.3  "></polygon></g></g></g></svg><style>
                        .st3{fill:#b2dfdb;}
                        .st4{font-family:'Roboto Condensed';}
                        .st6{fill:#fff; stroke: #e2e2e2; stroke-width: 0.5;}
                        .st7{fill:#c2c2c2;stroke:#FFFFFF;stroke-width:0.75;}
                        .st8{fill:none;stroke:#c2c2c2;stroke-width:0.75;}
                        .st9{fill:#c2c2c2;stroke:#FFFFFF;stroke-width:0.75;stroke-miterlimit:4;}
                        #compass {visibility: hidden;}
                        #distances {visibility: visible;}
                        #TEX .st0{fill:#b2dfdb;}
                        #TEX .st3{fill:#5b5b5b;}
                        #TEX .st0{font-family:'Roboto Condensed';}
                    </style></g></svg>