<svg xmlns="http://www.w3.org/2000/svg" viewBox="13.521400451660156 48.07219696044922 471.60205078125 397.52783203125"><g id="evp-venue-svg"><svg id="_x34__1_" xmlns="http://www.w3.org/2000/svg" xmlns:xlink="http://www.w3.org/1999/xlink" x="0px" y="0px" viewBox="0 0 250 250" xml:space="preserve" width="500" height="500"><style type="text/css">
	.st0{fill:#5B5B5B;}
	.st1{fill:#7F7F7F;}
	.st2{fill:#FFEC5F;}
	.st3{fill:#68836A;}
	.st4{font-family:'ArialMT';}
	.st5{font-size:11px;}
	.st6{fill:#A88B49;}
	.st7{fill:#FFFFFF;stroke:#FFFFFF;stroke-width:0.75;}
	.st8{fill:none;stroke:#FFFFFF;stroke-width:0.75;}
	.st9{fill:#FFFFFF;stroke:#FFFFFF;stroke-width:0.75;stroke-miterlimit:4;}
	.st10{fill:#FFFFFF;stroke:#FFFFFF;stroke-width:0.75;stroke-miterlimit:4.0018;}
</style><g id="CWS"><g id="compass"><g id="Compass_100_"><path class="st0" d="M234,193.9l-6,6.9l-7.1,3.8l5-6.3L234,193.9z"></path><path class="st1" d="M239,189.6c5.5,6.6,4.5,16.4-2.1,21.8c-6.6,5.5-16.4,4.5-21.8-2.1c-5.5-6.6-4.5-16.4,2.1-21.8 C223.7,182.1,233.5,183,239,189.6z M216.1,208.6c5,6,13.9,6.9,20,1.9c6-5,6.9-13.9,1.9-20c-5-6-13.9-6.9-20-1.9 S211.1,202.5,216.1,208.6z"></path><path class="st0" d="M224.1,199.2c0.2-1.6,1.6-2.8,3.2-2.7c1.6,0.2,2.8,1.6,2.7,3.2c-0.2,1.6-1.6,2.8-3.2,2.7 C225.1,202.3,223.9,200.9,224.1,199.2z M218.7,208.4l-1.9-2.4l0.4-0.3l2.4,0.8l-1.3-1.7l0.4-0.3l1.9,2.4l-0.4,0.3l-2.4-0.8 l1.3,1.7L218.7,208.4z"></path><path class="st2" d="M225.4,199.4c0.1-0.9,0.9-1.6,1.8-1.5c0.9,0.1,1.6,0.9,1.5,1.8c-0.1,0.9-0.9,1.6-1.8,1.5 C226,201.1,225.3,200.3,225.4,199.4z"></path></g></g><g id="distances"><text id="right" transform="matrix(1 0 0 1 223.998 104.0229)" class="st3 st4 st5">335</text><text id="center_1_" transform="matrix(1 0 0 1 116.9365 34.0361)" class="st3 st4 st5">400</text><text id="left" transform="matrix(1 0 0 1 6.7607 112.9746)" class="st3 st4 st5">330</text></g><g id="field"><path id="Outfield_1_" class="st6" d="M27.4,107.2l1-0.6l1.4-2l1.4-2l1.4-2l1.4-2l1.4-2.1l1.5-2.1l1.5-2.1l1.5-2.1l1.5-2.1 l1.5-2.2l1.5-2.2l1.7-2.1l1.9-1.8l1.9-1.8l1.9-1.8l1.9-1.8l1.9-1.8l1.9-1.9l2-1.9l2-1.9l2-1.9l2-2l2.1-2l2.1-2l2.1-2l2.2-2 l2.3-1.7l2.4-1.6l2.4-1.6l2.5-1.4l2.5-1.4l2.6-1.4l2.6-1.1l2.7-1l2.7-1l2.7-1l2.7-1.3l2.7-1.6l2.7-1.6l2.9-0.5h29l2.9,0.4l2.7,1.6 l2.7,1.6l2.7,1.2l2.7,1l2.7,1l2.7,1l2.7,1l2.5,1.5l2.5,1.5l2.5,1.4l2.5,1.4l2.5,1.4l2.4,1.5l2.2,1.9l2.2,1.8l2.2,1.8l2,2.2l2,2.1 l2,2.1l1.9,2.1l1.9,2l1.9,2l1.9,2l1.8,2l1.8,2l1.8,2l1.7,2l1.7,1.9l1.7,1.9l1.7,1.9l1.7,1.9l1.7,1.9l1.7,1.9l1.7,1.9l1.6,1.8 l1.6,1.8l1.6,1.8l1.6,1.8l1.6,1.8l1,1.9l-9.7,10.3L177.4,176L150,208.2c0,0-13.4,14.3-24.6,14.6c-16.3,0-26.9-16.4-26.9-16.4 l-24.9-29.3L68,166.3l-29.3-48.4L27.4,107.2L27.4,107.2z"></path><path id="grass_1_" class="st3" d="M110.1,208.5l-32.5-38l-31.8-54.4c0,0-4.7-5.8-5.5-7.4c-0.9-1.6-0.8-3.4-0.8-3.4 s-0.4-0.9,1.4-4c2-3.4,5.4-8.4,11.1-14.1c10.9-10.9,27.2-26,27.2-26l1.8-1.4l2.2-1.5l2-1.3c0,0,21.4-13.4,41-13.4 c11.4,0,22.1,3.1,33.6,7.9c11.5,4.7,30.7,28.4,30.7,28.4l20.4,22.7l1.2,3.5l-0.7,3.9l-1.6,2.7l-21.3,36l-16,24.3l-32.7,35.1 c-2.4,2.5-8.5,8.7-15.7,8.7S112,210.8,110.1,208.5L110.1,208.5z"></path><path id="infield_sand" class="st6" d="M163.9,166.7l-1-1c-5-16-20-27.7-37.7-27.7s-32.7,11.7-37.7,27.7l-1,1l32.7,32.7 c-0.5,0.9-0.7,1.9-0.7,3c0,3.7,3,6.7,6.7,6.7s6.7-3,6.7-6.7c0-1.1-0.3-2.1-0.7-3L163.9,166.7z M122.5,154.7 c0.8,0.5,1.7,0.8,2.7,0.8s1.9-0.3,2.7-0.8l16.8,16.8c-1.6,1.6-1.6,4.1,0,5.6l2.5,2.5l-17.7,17.7c-1.2-1-2.7-1.6-4.3-1.6 s-3.2,0.6-4.3,1.6l-17.7-17.7l2.5-2.5c1.6-1.5,1.6-4,0-5.6L122.5,154.7z"></path></g><g id="persistent_1_"><g id="mound_1_"><path id="pitching-mound_1_" class="st6" d="M122.5,174.7c-1.5,1.5-1.5,3.9,0,5.4s3.9,1.5,5.4,0c1.5-1.5,1.5-3.9,0-5.4 C126.5,173.2,124,173.2,122.5,174.7z"></path><path id="pitching-rubber_1_" class="st7" d="M123.2,176.6h4v1.6h-4V176.6z"></path></g><g id="lines_1_"><path id="left-foul-line_2_" class="st8" d="M125.2,203.2l-96.7-96.7"></path><path id="right-foul-line_1_" class="st8" d="M125.2,203.2l98.4-98.4"></path></g><g id="bases_2_"><rect id="third-base_2_" x="99.2" y="175.1" transform="matrix(0.7073 -0.7069 0.7069 0.7073 -95.3473 122.8833)" class="st9" width="3" height="3"></rect><rect id="first-base_2_" x="148.1" y="175.2" transform="matrix(0.7073 -0.7069 0.7069 0.7073 -81.1078 157.4629)" class="st9" width="3" height="3"></rect><rect id="second-base_2_" x="123.7" y="148.6" transform="matrix(0.707 -0.7073 0.7073 0.707 -69.4796 132.5406)" class="st10" width="3" height="3"></rect><polygon id="home_2_" class="st7" points="126.7,201.8 125.2,203.4 123.7,201.8 123.7,200.3 126.7,200.3  "></polygon></g></g></g></svg><style>
                        .st3{fill:#b2dfdb;}
                        .st4{font-family:'Roboto Condensed';}
                        .st6{fill:#fff; stroke: #e2e2e2; stroke-width: 0.5;}
                        .st7{fill:#c2c2c2;stroke:#FFFFFF;stroke-width:0.75;}
                        .st8{fill:none;stroke:#c2c2c2;stroke-width:0.75;}
                        .st9{fill:#c2c2c2;stroke:#FFFFFF;stroke-width:0.75;stroke-miterlimit:4;}
                        #compass {visibility: hidden;}
                        #distances {visibility: visible;}
                        #TEX .st0{fill:#b2dfdb;}
                        #TEX .st3{fill:#5b5b5b;}
                        #TEX .st0{font-family:'Roboto Condensed';}
                    </style></g></svg>