<svg xmlns="http://www.w3.org/2000/svg" viewBox="14.431599617004395 44.957000732421875 470.6116638183594 404.2430114746094"><g id="evp-venue-svg"><svg id="_x37__1_" xmlns="http://www.w3.org/2000/svg" xmlns:xlink="http://www.w3.org/1999/xlink" x="0px" y="0px" viewBox="0 0 250 250" xml:space="preserve" width="500" height="500"><style type="text/css">
	.st0{fill:#5B5B5B;}
	.st1{fill:#7F7F7F;}
	.st2{fill:#FFEC5F;}
	.st3{fill:#68836A;}
	.st4{font-family:'ArialMT';}
	.st5{font-size:11px;}
	.st6{fill:#A88B49;}
	.st7{fill:#FFFFFF;stroke:#FFFFFF;stroke-width:0.75;}
	.st8{fill:none;stroke:#FFFFFF;stroke-width:0.75;}
	.st9{fill:#FFFFFF;stroke:#FFFFFF;stroke-width:0.75;stroke-miterlimit:4;}
	.st10{fill:#FFFFFF;stroke:#FFFFFF;stroke-width:0.75;stroke-miterlimit:4.0018;}
</style><g id="KCR"><g id="compass"><path class="st0" d="M232.8,206.4l-7.1-5.9l-3.9-7l6.4,4.9L232.8,206.4z"></path><path class="st1" d="M237.2,211.2c-6.4,5.6-16.3,4.9-21.9-1.5c-5.6-6.4-4.9-16.3,1.5-21.9c6.4-5.6,16.3-4.9,21.9,1.5 C244.3,195.8,243.7,205.6,237.2,211.2z M217.7,188.8c-5.9,5.1-6.5,14.1-1.4,20s14.1,6.5,20,1.4s6.5-14.1,1.4-20 S223.6,183.7,217.7,188.8z"></path><path class="st0" d="M227.2,196.6c1.6,0.1,2.9,1.5,2.8,3.2c-0.1,1.6-1.5,2.9-3.2,2.8c-1.6-0.1-2.9-1.5-2.8-3.2 C224.2,197.7,225.6,196.4,227.2,196.6z M220,193.3l-2-2.3l0.4-0.3l2.5,0.7l-1.4-1.6l0.4-0.3l2,2.3l-0.4,0.3l-2.5-0.7l1.4,1.6 L220,193.3z"></path><path class="st2" d="M227.1,197.9c0.9,0.1,1.6,0.9,1.5,1.8c-0.1,0.9-0.9,1.6-1.8,1.5c-0.9-0.1-1.6-0.9-1.5-1.8 C225.4,198.5,226.2,197.8,227.1,197.9z"></path></g><g id="distances"><text id="right" transform="matrix(1 0 0 1 223.2178 111.8696)" class="st3 st4 st5">330</text><text id="right-center" transform="matrix(1 0 0 1 188.6943 54.0254)" class="st3 st4 st5">387</text><text id="center" transform="matrix(1 0 0 1 94.6968 32.4785)" class="st3 st4 st5">410</text><text id="left-center" transform="matrix(1 0 0 1 45.7861 53.0264)" class="st3 st4 st5">387</text><text id="left" transform="matrix(1 0 0 1 7.2158 111.8696)" class="st3 st4 st5">330</text></g><g id="field"><path id="Outfield_1_" class="st6" d="M125.1,224.6c-17.7,0-27.7-12.3-27.7-12.3S75,177.8,68.3,173c-11.5-8.2-39.2-64.6-39.2-64.6 l-0.5-1.6l-1.4-4.9L27,98.1l0.4-3.3l0.8-2.9l1.3-2.5l1.7-2l1.8-2l1.8-2l1.8-2l1.8-2l1.8-2.1l1.8-2.1l1.8-2.2l1.8-2.1l1.9-2.1 l1.9-2.1l2.1-1.9l2.2-1.8l2.2-1.8l2.2-1.8l2.2-1.8l2.3-1.7l2.3-1.7l2.4-1.6l2.4-1.6l2.5-1.6l2.5-1.6l2.5-1.5l2.6-1.4l2.6-1.4 l2.7-1.3l2.7-1.3l2.7-1.2l2.8-1l2.8-1.1l2.8-0.9l2.9-0.8l2.9-0.8l2.9-0.6l2.9-0.5l2.9-0.5l3-0.4l3-0.2l3-0.1h6l3,0.1l3,0.4l3,0.4 l3,0.3l2.9,0.6l2.9,0.6l2.9,0.6l2.9,0.9l2.8,1l2.8,1.1l2.8,1.1l2.7,1.3l2.6,1.4l2.6,1.4l2.6,1.4l2.6,1.4l2.6,1.4l2.5,1.5l2.4,1.6 l2.4,1.6l2.4,1.6l2.4,1.6l2.3,1.7l2.2,1.8l2.2,1.8l2.2,1.8l2.2,1.8l2,2l1.9,2.1l1.9,2.1l1.9,2.1l1.9,2.1l1.8,2l1.8,2l1.8,2l1.8,2 l1.8,2l1.7,2l1.7,2l1.1,2.7l0.8,3l0.4,3.3l-0.3,3.9l-1.4,4.8l-1.9,6.3c-5.8,14.5-30.4,52.6-39,57.8c-8.6,5.1-26.7,40.6-26.7,40.6 S142.8,224.6,125.1,224.6L125.1,224.6z"></path><path id="grass_1_" class="st3" d="M126.1,216.6c-9.8,0-17.4-3.5-21.2-6.4c-5-3.8-30.9-43.6-30.9-43.6l-13.4-18.8l-24.1-42.5 l-1.4-4.7L35,98.3l0.2-2.1l0.4-1.5l0.5-0.9l1.1-1.3l1.7-1.9l3.6-4.1l1.8-2.1l1.8-2.1l1.9-2.2l1.8-2.1l1.8-2.1l1.8-2l1.6-1.8 l1.7-1.5l2.1-1.7l4.2-3.5l2.1-1.7l2.2-1.7l2.1-1.6l4.5-3.1l4.7-3l2.4-1.4l2.4-1.4l2.4-1.3l5.1-2.5l2.4-1.1l5.1-1.9l2.5-0.8 l5.2-1.5l2.4-0.5l5.7-0.9l2.6-0.4l2.6-0.2l2.6-0.1l5.7,0.1l2.5,0.1l8.1,1l2.5,0.6l5.4,1.2l2.3,0.7l2.6,0.9l5.2,2l2.3,1.1l12.6,6.7 l2.1,1.3l9.4,6.3l2,1.5l8.4,6.8l1.6,1.5l1.7,1.9l1.9,2.2l1.9,2.1l7.3,8.1l1.8,2l1.7,2l1.6,1.9l0.9,1l0.4,1l0.5,2l0.3,2l-0.2,2.3 l-1.1,4l-1.8,5.9c-3,7.4-8.4,15.8-12.7,22.6c-4.7,7.3-9.7,15.3-9.7,15.3l-12.8,15.7L158,192.8c0,0-9.7,13.5-12.3,15.9 S135.6,216.6,126.1,216.6L126.1,216.6z"></path><path id="infield_sand" class="st6" d="M163.9,166.7l-1-1c-5-16-20-27.7-37.7-27.7s-32.7,11.7-37.7,27.7l-1,1l32.7,32.7 c-0.5,0.9-0.7,1.9-0.7,3c0,3.7,3,6.7,6.7,6.7s6.7-3,6.7-6.7c0-1.1-0.3-2.1-0.7-3L163.9,166.7z M122.5,154.7 c0.8,0.5,1.7,0.8,2.7,0.8s1.9-0.3,2.7-0.8l16.8,16.8c-1.6,1.6-1.6,4.1,0,5.6l2.5,2.5l-17.7,17.7c-1.2-1-2.7-1.6-4.3-1.6 s-3.2,0.6-4.3,1.6l-17.7-17.7l2.5-2.5c1.6-1.5,1.6-4,0-5.6L122.5,154.7z"></path></g><g id="persistent_1_"><g id="mound_1_"><path id="pitching-mound_1_" class="st6" d="M122.5,174.7c-1.5,1.5-1.5,3.9,0,5.4s3.9,1.5,5.4,0c1.5-1.5,1.5-3.9,0-5.4 C126.5,173.2,124,173.2,122.5,174.7z"></path><path id="pitching-rubber_1_" class="st7" d="M123.2,176.6h4v1.6h-4V176.6z"></path></g><g id="lines_1_"><path id="left-foul-line_1_" class="st8" d="M125.2,203.2l-97.1-97.1"></path><path id="right-foul-line_1_" class="st8" d="M125.2,203.2l97.1-97.2"></path></g><g id="bases_2_"><rect id="third-base_2_" x="99.2" y="175.1" transform="matrix(0.7073 -0.7069 0.7069 0.7073 -95.3473 122.8833)" class="st9" width="3" height="3"></rect><rect id="first-base_2_" x="148.1" y="175.2" transform="matrix(0.7073 -0.7069 0.7069 0.7073 -81.1078 157.4629)" class="st9" width="3" height="3"></rect><rect id="second-base_2_" x="123.7" y="148.6" transform="matrix(0.707 -0.7073 0.7073 0.707 -69.4796 132.5406)" class="st10" width="3" height="3"></rect><polygon id="home_2_" class="st7" points="126.7,201.8 125.2,203.4 123.7,201.8 123.7,200.3 126.7,200.3  "></polygon></g></g></g></svg><style>
                        .st3{fill:#b2dfdb;}
                        .st4{font-family:'Roboto Condensed';}
                        .st6{fill:#fff; stroke: #e2e2e2; stroke-width: 0.5;}
                        .st7{fill:#c2c2c2;stroke:#FFFFFF;stroke-width:0.75;}
                        .st8{fill:none;stroke:#c2c2c2;stroke-width:0.75;}
                        .st9{fill:#c2c2c2;stroke:#FFFFFF;stroke-width:0.75;stroke-miterlimit:4;}
                        #compass {visibility: hidden;}
                        #distances {visibility: visible;}
                        #TEX .st0{fill:#b2dfdb;}
                        #TEX .st3{fill:#5b5b5b;}
                        #TEX .st0{font-family:'Roboto Condensed';}
                    </style></g></svg>