<svg xmlns="http://www.w3.org/2000/svg" viewBox="5.929600238800049 49.090797424316406 488.9142150878906 403.10919189453125"><g id="evp-venue-svg"><svg id="_x33_2" xmlns="http://www.w3.org/2000/svg" xmlns:xlink="http://www.w3.org/1999/xlink" x="0px" y="0px" viewBox="0 0 250 250" xml:space="preserve" width="500" height="500"><style type="text/css">
	.st0{fill:#5B5B5B;}
	.st1{fill:#7F7F7F;}
	.st2{fill:#FFEC5F;}
	.st3{fill:#68836A;}
	.st4{font-family:'ArialMT';}
	.st5{font-size:11px;}
	.st6{fill:#A88B49;}
	.st7{fill:#FFFFFF;stroke:#FFFFFF;stroke-width:0.75;}
	.st8{fill:none;stroke:#FFFFFF;stroke-width:0.75;}
	.st9{fill:#FFFFFF;stroke:#FFFFFF;stroke-width:0.75;stroke-miterlimit:4;}
	.st10{fill:#FFFFFF;stroke:#FFFFFF;stroke-width:0.75;stroke-miterlimit:4.0018;}
</style><g id="MIL"><g id="compass"><path class="st0" d="M232.5,192.5l-4.2,8.1l-6,5.3l3.4-7.3L232.5,192.5z"></path><path class="st1" d="M236.3,187.1c6.8,5.1,8.2,14.9,3.1,21.7c-5.1,6.8-14.9,8.2-21.7,3.1c-6.8-5.1-8.2-14.9-3.1-21.7 C219.7,183.4,229.5,182,236.3,187.1z M218.5,210.9c6.3,4.7,15.2,3.4,19.9-2.9c4.7-6.3,3.4-15.2-2.9-19.9 c-6.3-4.7-15.2-3.4-19.9,2.9C211,197.3,212.3,206.2,218.5,210.9z"></path><path class="st0" d="M224.1,199.9c-0.2-1.6,0.9-3.1,2.5-3.4c1.6-0.2,3.1,0.9,3.4,2.5c0.2,1.6-0.9,3.1-2.5,3.4 C225.8,202.7,224.3,201.6,224.1,199.9z M222.4,207.7l-1.8,2.5l-0.4-0.3l0.1-2.5l-1.3,1.7l-0.4-0.3l1.8-2.5l0.4,0.3l-0.1,2.6 l1.3-1.7L222.4,207.7z"></path><path class="st2" d="M225.4,199.8c-0.1-0.9,0.5-1.7,1.4-1.9s1.7,0.5,1.9,1.4c0.1,0.9-0.5,1.7-1.4,1.9 C226.4,201.3,225.5,200.7,225.4,199.8z"></path></g><g id="distances"><text id="right" transform="matrix(1 0 0 1 230.9219 107.7896)" class="st3 st4 st5">345</text><text id="center" transform="matrix(1 0 0 1 115.8994 34.5454)" class="st3 st4 st5">400</text><text id="left" transform="matrix(1 0 0 1 2.9648 112.5405)" class="st3 st4 st5">342</text></g><g id="field"><path id="Outfield_1_" class="st6" d="M229.1,104.1l-41.3,42.3l0.6,2.5l-13.7,28.6c0,0-27,33.8-32.7,40.2 c-4.2,5.2-10.9,8.4-18.4,8.4c-12.1,0-19.1-8.4-27.7-20.1l-24.3-31.5L51,142.2l-2.5-9.5l-25.1-24.9l1.2-5.1l0.8-2.7l0.8-2.8 l0.8-2.8l0.9-2.9l1.3-2.5l1.8-1.9l1.9-1.9l1.9-1.9l1.9-1.9l1.9-1.9l1.9-1.9l1.9-1.9l1.9-1.9l1.9-1.9l2-2l2.1-1.7l2.5-1.1l2.5-1.1 l2.5-1.1l2.5-1.1l2.5-1.1l2.5-1.1l2.5-1.1l2.5-1.1l2.4-1.3l2.4-1.3l2.5-1.1l2.5-1.1l2.5-1.1l2.5-1.1l2.5-1.1l2.5-1.1l2.6-1.2 l2.4-2.1l2.3-3.1l2.3-3.2l2.6-2.3l2.9-0.4l2.9-0.3l2.9-0.2l2.9-0.3l2.9-0.2l2.9-0.1l2.9-0.1h5.8l2.9,0.1l2.9,0.1l2.9,0.2l2.9,0.2 l2.9,0.3l2.9,0.3l2.9,0.4l2.6,2.3l2.3,3.3l2.5,1.8l2.6,1.2l2.6,1.2l2.6,1.2l2.6,1.2l2.5,1.1l2.5,1.1l2.5,1.1l2.5,1.1L179,56 l2.5,1.1l2.5,1.1l2.2,1.9l2.1,1.8l2.1,1.8l2.1,1.8l2.1,1.8l2.1,1.8l0.5,4.5l1.4,2.8l1.9,1.7l1.9,1.7l1.9,1.7l1.9,1.7l1.9,1.7 l1.9,1.7l1.9,1.7l1.9,1.7l1.9,1.6l1.9,1.6L219,95l1.9,1.6l1.9,1.6l1.9,1.6l1.8,1.7L229.1,104.1L229.1,104.1z"></path><path id="grass_1_" class="st3" d="M125.5,219.1c-7.7,0-14.6-6-23.2-17.9l-24.2-31.4l-19.8-30.9l-2.7-10.4l-23.5-23.2l0.1-0.5 l3.1-10.3l0.4-0.7L53.4,76l1-0.8l19-8.4l2.6-1.4l2.2-1.1L96.6,56l4-3.4l4.7-6.5l0.1-0.1h0.3l2.7-0.3l2.9-0.2l2.7-0.3l2.7-0.2 l2.8-0.1l2.8-0.1h5.5l2.7,0.1l2.8,0.1l2.8,0.2l2.7,0.2l2.8,0.3l2.6,0.3l0.3,0.1l0.2,0.1l2.6,3.6l4.2,3l27.6,12.4l9.4,8.1l0.3,2.8 l2.7,5.5l26,22.8L179,143.9l0.9,3.9l-11.5,26.6c-3.7,4.6-31.6,38.1-31.6,38.1S131.9,219.1,125.5,219.1z"></path><path id="infield_sand" class="st6" d="M163.9,166.7l-1-1c-5-16-20-27.7-37.7-27.7s-32.7,11.7-37.7,27.7l-1,1l32.7,32.7 c-0.5,0.9-0.7,1.9-0.7,3c0,3.7,3,6.7,6.7,6.7s6.7-3,6.7-6.7c0-1.1-0.3-2.1-0.7-3L163.9,166.7z M122.5,154.7 c0.8,0.5,1.7,0.8,2.7,0.8s1.9-0.3,2.7-0.8l16.8,16.8c-1.6,1.6-1.6,4.1,0,5.6l2.5,2.5l-17.7,17.7c-1.2-1-2.7-1.6-4.3-1.6 s-3.2,0.6-4.3,1.6l-17.7-17.7l2.5-2.5c1.6-1.5,1.6-4,0-5.6L122.5,154.7z"></path></g><g id="persistent_1_"><g id="mound_1_"><path id="pitching-mound_1_" class="st6" d="M122.5,174.7c-1.5,1.5-1.5,3.9,0,5.4s3.9,1.5,5.4,0c1.5-1.5,1.5-3.9,0-5.4 C126.5,173.2,124,173.2,122.5,174.7z"></path><path id="pitching-rubber_1_" class="st7" d="M123.2,176.6h4v1.6h-4V176.6z"></path></g><g id="lines_1_"><path id="left-foul-line_1_" class="st8" d="M125.2,203.2l-96.8-96.8l-3.8-3.9"></path><path id="right-foul-line_1_" class="st8" d="M125.2,203.2l96.7-96.8l4.6-4.7"></path></g><g id="bases_2_"><rect id="third-base_2_" x="99.2" y="175.1" transform="matrix(0.7073 -0.7069 0.7069 0.7073 -95.3473 122.8833)" class="st9" width="3" height="3"></rect><rect id="first-base_2_" x="148.1" y="175.2" transform="matrix(0.7073 -0.7069 0.7069 0.7073 -81.1078 157.4629)" class="st9" width="3" height="3"></rect><rect id="second-base_2_" x="123.7" y="148.6" transform="matrix(0.707 -0.7073 0.7073 0.707 -69.4796 132.5406)" class="st10" width="3" height="3"></rect><polygon id="home_2_" class="st7" points="126.7,201.8 125.2,203.4 123.7,201.8 123.7,200.3 126.7,200.3  "></polygon></g></g></g></svg><style>
                        .st3{fill:#b2dfdb;}
                        .st4{font-family:'Roboto Condensed';}
                        .st6{fill:#fff; stroke: #e2e2e2; stroke-width: 0.5;}
                        .st7{fill:#c2c2c2;stroke:#FFFFFF;stroke-width:0.75;}
                        .st8{fill:none;stroke:#c2c2c2;stroke-width:0.75;}
                        .st9{fill:#c2c2c2;stroke:#FFFFFF;stroke-width:0.75;stroke-miterlimit:4;}
                        #compass {visibility: hidden;}
                        #distances {visibility: visible;}
                        #TEX .st0{fill:#b2dfdb;}
                        #TEX .st3{fill:#5b5b5b;}
                        #TEX .st0{font-family:'Roboto Condensed';}
                    </style></g></svg>