<svg xmlns="http://www.w3.org/2000/svg" viewBox="14.631799697875977 45.265602111816406 470.3681945800781 397.0690002441406"><g id="evp-venue-svg"><svg id="_x33_312" xmlns="http://www.w3.org/2000/svg" xmlns:xlink="http://www.w3.org/1999/xlink" x="0px" y="0px" viewBox="0 0 250 250" xml:space="preserve" width="500" height="500"><style type="text/css">
	.st0{fill:#5B5B5B;}
	.st1{fill:#7F7F7F;}
	.st2{fill:#FFEC5F;}
	.st3{fill:#68836A;}
	.st4{font-family:'ArialMT';}
	.st5{font-size:11px;}
	.st6{fill:#A88B49;}
	.st7{fill:#FFFFFF;stroke:#FFFFFF;stroke-width:0.75;}
	.st8{fill:none;stroke:#FFFFFF;stroke-width:0.75;}
	.st9{fill:#FFFFFF;stroke:#FFFFFF;stroke-width:0.75;stroke-miterlimit:4;}
	.st10{fill:#FFFFFF;stroke:#FFFFFF;stroke-width:0.75;stroke-miterlimit:4.0018;}
</style><g id="MIN"><g id="compass"><path class="st0" d="M236,199.6l-9.1,1.5l-7.8-1.5l7.8-1.7L236,199.6z"></path><path class="st1" d="M242.5,199.4c0,8.6-6.9,15.5-15.4,15.6c-8.6,0-15.5-6.9-15.6-15.4c0-8.6,6.9-15.5,15.4-15.6 C235.5,184,242.5,190.9,242.5,199.4z M212.8,199.6c0,7.8,6.4,14.2,14.3,14.1c7.8,0,14.2-6.4,14.1-14.3c0-7.8-6.4-14.2-14.3-14.1 C219.1,185.4,212.8,191.8,212.8,199.6z"></path><path class="st0" d="M224.9,197.4c1.2-1.2,3-1.2,4.2,0s1.2,3,0,4.2s-3,1.2-4.2,0C223.8,200.5,223.8,198.6,224.9,197.4z  M217.8,200.8h-3.1v-0.5l2.1-1.4h-2.1v-0.5h3.1v0.5l-2.1,1.4h2.1V200.8z"></path><path class="st2" d="M225.8,198.4c0.6-0.6,1.7-0.7,2.3,0c0.6,0.6,0.7,1.7,0,2.3c-0.6,0.6-1.7,0.7-2.3,0 C225.2,200.1,225.2,199,225.8,198.4z"></path></g><g id="distances"><text id="right" transform="matrix(1 0 0 1 225.501 114.416)" class="st3 st4 st5">328</text><text id="right-right-center_1_" transform="matrix(1 0 0 1 191.4268 68.5586)" class="st3 st4 st5">365</text><text id="right-center_1_" transform="matrix(1 0 0 1 144.2588 36.3398)" class="st3 st4 st5">403</text><text id="left-center_1_" transform="matrix(1 0 0 1 113.145 32.6328)" class="st3 st4 st5">411</text><text id="left-left-center_1_" transform="matrix(1 0 0 1 43.3491 60.9365)" class="st3 st4 st5">377</text><text id="left" transform="matrix(1 0 0 1 7.3159 99.9365)" class="st3 st4 st5">339</text></g><g id="field"><path id="Outfield_1_" class="st6" d="M24,105.1l1.3-1.7l1.6-1.8l1.6-1.9l1.6-1.9l1.7-1.9l1.7-1.9l1.7-1.9l1.7-1.9l1.7-1.9 l1.7-1.9l1.7-1.9l1.7-2l1.7-2l1.8-2l1.8-2l1.8-2l1.8-2.1l1.8-2.1l1.9-2.1l1.9-2.1l1.9-2.2l2-2.2l2-2.2l2.2-1.9l2.4-1.5l2.4-1.5 l2.4-1.5l2.4-1.5l2.4-1.5l2.5-1.5l2.5-1.5l2.5-1.5l2.5-1.6l2.6-1.6l2.6-1.6l2.6-1.6l2.7-1.6l2.7-1.7l2.8-1.7l2.9-1.1l3,0.3l3,0.3 l3,0.3l3,0.3l3,0.3l2.9,0.3l2.9,0.3l2.9,0.3l2.9,0.3l2.9,0.3l2.9,0.3l2.9,0.3l2.8,1.1l2.7,1.7l2.7,1.7l2.6,1.7l2.6,1.7l2.5,1.6 l2.5,1.6l2.5,1.6l2.4,1.6l2.4,1.6l2.4,1.5l2.4,1.5l2.3,1.5l2.3,1.5L180,60l2.3,1.5l2.3,1.5l2.3,1.5l1.9,2.2l1.8,2.2l1.8,2.2 l1.8,2.2l1.8,2.1l1.7,2.1l1.7,2.1l1.7,2.1l1.7,2l1.6,2l1.6,2l1.6,2l1.6,2l1.6,1.9l1.6,1.9l1.6,1.9l1.5,1.9l1.5,1.9l1.5,1.9 l1.5,1.9l1.5,1.9l2,2l-29.4,29.7l-9,27.1l-9.9,14c0,0-13.3,14.3-34.5,34.9c-15.9,15.5-32.5-1.3-32.5-1.3L56.8,158l-14.7-34.2 L24,105.1z"></path><path id="grass_1_" class="st3" d="M125.9,216.3c-6.7,0-11.7-5.4-11.8-5.5l-0.2-0.2l-0.1-0.1l-48.4-49.1l-14.6-40.2L35,104.8 l34.7-39.4l1.3-1.1l40.3-22.9l29.4,2.9l1,0.4l39.8,25.7l1.1,1.3l32.1,39.3l-24.6,23.9l-8.4,24.2l-11.9,17.4 c-3,3-14.4,14.3-31.8,32.3C133.2,213.8,130.5,216.3,125.9,216.3L125.9,216.3z"></path><path id="infield_sand" class="st6" d="M163.9,166.7l-1-1c-5-16-20-27.7-37.7-27.7s-32.7,11.7-37.7,27.7l-1,1l32.7,32.7 c-0.5,0.9-0.7,1.9-0.7,3c0,3.7,3,6.7,6.7,6.7s6.7-3,6.7-6.7c0-1.1-0.3-2.1-0.7-3L163.9,166.7z M122.5,154.7 c0.8,0.5,1.7,0.8,2.7,0.8s1.9-0.3,2.7-0.8l16.8,16.8c-1.6,1.6-1.6,4.1,0,5.6l2.5,2.5l-17.7,17.7c-1.2-1-2.7-1.6-4.3-1.6 s-3.2,0.6-4.3,1.6l-17.7-17.7l2.5-2.5c1.6-1.5,1.6-4,0-5.6L122.5,154.7z"></path></g><g id="persistent"><g id="mound"><path id="pitching-mound" class="st6" d="M122.5,174.7c-1.5,1.5-1.5,3.9,0,5.4s3.9,1.5,5.4,0c1.5-1.5,1.5-3.9,0-5.4 C126.5,173.2,124,173.2,122.5,174.7z"></path><path id="pitching-rubber" class="st7" d="M123.2,176.6h4v1.6h-4V176.6z"></path></g><g id="lines"><path id="left-foul-line_2_" class="st8" d="M125.2,203.2l-99.9-99.9"></path><path id="right-foul-line" class="st8" d="M125.2,203.2l96.4-96.4"></path></g><g id="bases_2_"><rect id="third-base_2_" x="99.2" y="175.1" transform="matrix(0.7073 -0.7069 0.7069 0.7073 -95.3473 122.8833)" class="st9" width="3" height="3"></rect><rect id="first-base_2_" x="148.1" y="175.2" transform="matrix(0.7073 -0.7069 0.7069 0.7073 -81.1078 157.4629)" class="st9" width="3" height="3"></rect><rect id="second-base_2_" x="123.7" y="148.6" transform="matrix(0.707 -0.7073 0.7073 0.707 -69.4796 132.5406)" class="st10" width="3" height="3"></rect><polygon id="home_2_" class="st7" points="126.7,201.8 125.2,203.4 123.7,201.8 123.7,200.3 126.7,200.3  "></polygon></g></g></g></svg><style>
                        .st3{fill:#b2dfdb;}
                        .st4{font-family:'Roboto Condensed';}
                        .st6{fill:#fff; stroke: #e2e2e2; stroke-width: 0.5;}
                        .st7{fill:#c2c2c2;stroke:#FFFFFF;stroke-width:0.75;}
                        .st8{fill:none;stroke:#c2c2c2;stroke-width:0.75;}
                        .st9{fill:#c2c2c2;stroke:#FFFFFF;stroke-width:0.75;stroke-miterlimit:4;}
                        #compass {visibility: hidden;}
                        #distances {visibility: visible;}
                        #TEX .st0{fill:#b2dfdb;}
                        #TEX .st3{fill:#5b5b5b;}
                        #TEX .st0{font-family:'Roboto Condensed';}
                    </style></g></svg>