<svg xmlns="http://www.w3.org/2000/svg" viewBox="20.76460075378418 44.3583984375 464.2090148925781 400.6416015625"><g id="evp-venue-svg"><svg id="_x33_313" xmlns="http://www.w3.org/2000/svg" xmlns:xlink="http://www.w3.org/1999/xlink" x="0px" y="0px" viewBox="0 0 250 250" xml:space="preserve" width="500" height="500"><style type="text/css">
	.st0{fill:#5B5B5B;}
	.st1{fill:#7F7F7F;}
	.st2{fill:#FFEC5F;}
	.st3{fill:#68836A;}
	.st4{font-family:'ArialMT';}
	.st5{font-size:11px;}
	.st6{fill:#A88B49;}
	.st7{fill:#FFFFFF;stroke:#FFFFFF;stroke-width:0.75;}
	.st8{fill:none;stroke:#FFFFFF;stroke-width:0.75;}
	.st9{fill:#FFFFFF;stroke:#FFFFFF;stroke-width:0.75;stroke-miterlimit:4;}
	.st10{fill:#FFFFFF;stroke:#FFFFFF;stroke-width:0.75;stroke-miterlimit:4.0018;}
</style><g id="NYY"><g id="compass"><path class="st0" d="M235.9,200.6l-9.1,0.5l-7.7-2.4l8-0.8L235.9,200.6z"></path><path class="st1" d="M242.4,201.1c-0.9,8.5-8.5,14.7-17,13.9c-8.5-0.9-14.7-8.5-13.9-17c0.9-8.5,8.5-14.7,17-13.9 C237.1,185,243.3,192.6,242.4,201.1z M212.9,198.1c-0.8,7.8,4.9,14.8,12.7,15.5c7.8,0.8,14.8-4.9,15.5-12.7 c0.8-7.8-4.9-14.8-12.7-15.5C220.7,184.6,213.7,190.3,212.9,198.1z"></path><path class="st0" d="M225.1,197.2c1.3-1,3.1-0.8,4.2,0.4c1,1.3,0.8,3.1-0.4,4.2c-1.3,1-3.1,0.8-4.2-0.4 C223.7,200.1,223.9,198.3,225.1,197.2z M217.7,199.8l-3.1-0.3V199l2.3-1.2l-2.1-0.2l0.1-0.5l3.1,0.3v0.5l-2.3,1.2l2.1,0.2 L217.7,199.8z"></path><path class="st2" d="M226,198.2c0.7-0.6,1.7-0.5,2.3,0.2s0.5,1.7-0.2,2.3s-1.7,0.5-2.3-0.2C225.2,199.9,225.3,198.8,226,198.2z"></path></g><g id="distances"><text id="right" transform="matrix(1 0 0 1 220.1484 120.0078)" class="st3 st4 st5">314</text><text id="right-center_1_" transform="matrix(1 0 0 1 166.9551 52.3149)" class="st3 st4 st5">385</text><text id="center" transform="matrix(1 0 0 1 130.6514 32.1792)" class="st3 st4 st5">408</text><text id="left-center_1_" transform="matrix(1 0 0 1 60.1245 45.5811)" class="st3 st4 st5">399</text><text id="left" transform="matrix(1 0 0 1 10.3823 115.9326)" class="st3 st4 st5">318</text></g><g id="field"><path id="Outfield_1_" class="st6" d="M125.8,222.5c-13.4,0-22-10.9-22-10.9L79.4,182L69,168.9l-16.7-34.3l-18.5-17.2l-2.4-7.7 l0.1-3.3l0.4-3l0.5-3.1l0.6-3l0.9-2.7l1-2.8l1.1-2.6l1.3-2.5l1.3-2.5l1.7-2l1.9-1.9l1.9-1.9l1.9-1.9l1.9-1.9l1.9-1.9l1.9-1.9l2-2 l2-2l2-2l2-2l2-2l2.1-2.1l2.1-2.1l2.1-2.1l2.2-2.2l2.2-2.2l2.3-2.1l2.5-1.5l2.5-1.5l2.6-1.5l2.6-1.6l2.6-1.6l2.6-1.6l2.8-0.9 l2.8-0.9l2.9-0.8l2.9-0.7l2.9-0.7l2.9-0.6l2.9-0.5l2.9-0.4h12l3,0.5l2.9,0.5l2.9,0.5l2.9,0.5l2.9,0.9l2.8,0.9l2.8,0.9l2.8,1.1 l2.6,1.9l2.6,1.9l2.5,1.8l2.5,1.8l2.5,1.8l2.4,1.7l2.3,2.2l2.2,2.2l2.2,2.2l2.1,2.1l2.1,2.1l2.1,2.1l2,2l2,2l2,2l1.9,1.9l1.9,1.9 l1.9,1.9l1.9,1.9l1.8,1.8l1.8,1.8l1.8,1.8l1.8,1.8l1.8,1.8l1.8,1.8l1.7,1.7l1.7,1.7l1.7,1.7l1.7,1.7l1.7,1.7l1.7,1.7l1.7,1.7 l1.4,2.1l1.3,2l0.9,2.4l0.9,2.4l0.4,2.8l-0.7,4.3l-21.8,21.8l-24.5,43.3l-24.9,32.4C145.6,212.7,138.2,222.5,125.8,222.5 L125.8,222.5z"></path><path id="grass_1_" class="st3" d="M125.8,216.5c-9.2,0-15.7-7.8-15.8-7.9l-32.4-37.1L59,129.8l-18.1-16.9l-1.4-4.4V107l0.3-2.5 l0.4-2.8l0.5-2.3l1.6-4.7l0.9-2.1l3-3.9l0.9-1.1c0,0,26.1-27.6,30.8-31.7c12.6-11.3,34.8-12.8,34.8-12.8h10.6l8.2,1.3l2.3,0.4 l7.8,2.6l1.6,0.6L157,58l47,45.1l1.1,1.1c0,0,2.7,3.1,0,6.5s-11.9,14.7-11.9,14.7l-23.1,43.3l-32.5,42 C135.9,212.7,131.6,216.5,125.8,216.5z"></path><path id="infield_sand" class="st6" d="M163.9,166.7l-1-1c-5-16-20-27.7-37.7-27.7s-32.7,11.7-37.7,27.7l-1,1l32.7,32.7 c-0.5,0.9-0.7,1.9-0.7,3c0,3.7,3,6.7,6.7,6.7s6.7-3,6.7-6.7c0-1.1-0.3-2.1-0.7-3L163.9,166.7z M122.5,154.7 c0.8,0.5,1.7,0.8,2.7,0.8s1.9-0.3,2.7-0.8l16.8,16.8c-1.6,1.6-1.6,4.1,0,5.6l2.5,2.5l-17.7,17.7c-1.2-1-2.7-1.6-4.3-1.6 s-3.2,0.6-4.3,1.6l-17.7-17.7l2.5-2.5c1.6-1.5,1.6-4,0-5.6L122.5,154.7z"></path></g><g id="persistent"><g id="mound"><path id="pitching-mound" class="st6" d="M122.5,174.7c-1.5,1.5-1.5,3.9,0,5.4s3.9,1.5,5.4,0c1.5-1.5,1.5-3.9,0-5.4 C126.5,173.2,124,173.2,122.5,174.7z"></path><path id="pitching-rubber" class="st7" d="M123.2,176.6h4v1.6h-4V176.6z"></path></g><g id="lines"><path id="left-foul-line" class="st8" d="M125.2,203.2l-97.1-97.1"></path><path id="right-foul-line" class="st8" d="M125.2,203.2l97.1-97.2"></path></g><g id="bases_2_"><rect id="third-base_2_" x="99.2" y="175.1" transform="matrix(0.7073 -0.7069 0.7069 0.7073 -95.3473 122.8833)" class="st9" width="3" height="3"></rect><rect id="first-base_2_" x="148.1" y="175.2" transform="matrix(0.7073 -0.7069 0.7069 0.7073 -81.1078 157.4629)" class="st9" width="3" height="3"></rect><rect id="second-base_2_" x="123.7" y="148.6" transform="matrix(0.707 -0.7073 0.7073 0.707 -69.4796 132.5406)" class="st10" width="3" height="3"></rect><polygon id="home_2_" class="st7" points="126.7,201.8 125.2,203.4 123.7,201.8 123.7,200.3 126.7,200.3  "></polygon></g></g></g></svg><style>
                        .st3{fill:#b2dfdb;}
                        .st4{font-family:'Roboto Condensed';}
                        .st6{fill:#fff; stroke: #e2e2e2; stroke-width: 0.5;}
                        .st7{fill:#c2c2c2;stroke:#FFFFFF;stroke-width:0.75;}
                        .st8{fill:none;stroke:#c2c2c2;stroke-width:0.75;}
                        .st9{fill:#c2c2c2;stroke:#FFFFFF;stroke-width:0.75;stroke-miterlimit:4;}
                        #compass {visibility: hidden;}
                        #distances {visibility: visible;}
                        #TEX .st0{fill:#b2dfdb;}
                        #TEX .st3{fill:#5b5b5b;}
                        #TEX .st0{font-family:'Roboto Condensed';}
                    </style></g></svg>