<svg xmlns="http://www.w3.org/2000/svg" viewBox="14.998000144958496 43.23040008544922 470.0041809082031 399.5696105957031"><g id="evp-venue-svg"><svg id="_x32_681" xmlns="http://www.w3.org/2000/svg" xmlns:xlink="http://www.w3.org/1999/xlink" x="0px" y="0px" viewBox="0 0 250 250" xml:space="preserve" width="500" height="500"><style type="text/css">
	.st0{fill:#5B5B5B;}
	.st1{fill:#7F7F7F;}
	.st2{fill:#FFEC5F;}
	.st3{fill:#68836A;}
	.st4{font-family:'ArialMT';}
	.st5{font-size:11px;}
	.st6{fill:#A88B49;}
	.st7{fill:#FFFFFF;stroke:#FFFFFF;stroke-width:0.75;}
	.st8{fill:none;stroke:#FFFFFF;stroke-width:0.75;}
	.st9{fill:#FFFFFF;stroke:#FFFFFF;stroke-width:0.75;stroke-miterlimit:4;}
	.st10{fill:#FFFFFF;stroke:#FFFFFF;stroke-width:0.75;stroke-miterlimit:4.0018;}
</style><g id="PHI"><g id="compass"><path class="st0" d="M227,208.5l-1.6-9.1l1.5-7.8l1.7,7.8L227,208.5z"></path><path class="st1" d="M227.2,215c-8.5,0.1-15.6-6.8-15.7-15.3c-0.1-8.5,6.8-15.6,15.3-15.7c8.5-0.1,15.6,6.8,15.7,15.3 C242.6,207.9,235.8,214.9,227.2,215z M226.8,185.3c-7.8,0.1-14.1,6.5-14,14.4c0.1,7.8,6.5,14.1,14.4,14c7.8-0.1,14.1-6.5,14-14.4 C241.1,191.5,234.7,185.2,226.8,185.3z"></path><path class="st0" d="M229.1,197.4c1.2,1.1,1.2,3,0.1,4.2c-1.1,1.2-3,1.2-4.2,0.1c-1.2-1.1-1.2-3-0.1-4.2S227.9,196.2,229.1,197.4z  M225.7,190.3v-3.1h0.5l1.4,2.1v-2.1h0.5v3.1h-0.5l-1.4-2.1v2.1H225.7z"></path><path class="st2" d="M228.2,198.3c0.7,0.6,0.7,1.7,0,2.3c-0.6,0.7-1.7,0.7-2.3,0c-0.7-0.6-0.7-1.7,0-2.3 C226.5,197.7,227.5,197.7,228.2,198.3z"></path></g><g id="distances"><text id="right" transform="matrix(1 0 0 1 223.8877 113.5547)" class="st3 st4 st5">330</text><text id="right-center_1_" transform="matrix(1 0 0 1 135.9971 35.5254)" class="st3 st4 st5">401</text><text id="center" transform="matrix(1 0 0 1 108.9951 31.6152)" class="st3 st4 st5">409</text><text id="left-center_1_" transform="matrix(1 0 0 1 78.3115 45.4072)" class="st3 st4 st5">387</text><text id="left-left-center_1_" transform="matrix(1 0 0 1 59.1709 52.4688)" class="st3 st4 st5">374</text><text id="left-left-left-center" transform="matrix(1 0 0 1 14.3525 97.2334)" class="st3 st4 st5">334</text><text id="left" transform="matrix(1 0 0 1 7.499 115.2637)" class="st3 st4 st5">329</text></g><g id="field"><path id="Outfield_1_" class="st6" d="M199.8,132l-2.4,2.3l-0.2,10.4L186.8,173l-49.7,48.3l-21.8,0.1l-49.2-47.2l-10.9-27.1 l0.1-9.4l-27.1-27.6l0.1-3.5v-3.5l1.7-1.8l1.7-1.7l1.7-1.7l1.7-1.7l1.7-1.7l1.7-1.7l1.7-1.7l1.8-1.8l1.8-1.8l1.8-1.8l1.8-1.8 l1.8-1.8l1.8-1.8l1.8-1.8l1.8-1.8l1.9-1.9l1.9-1.9l1.9-1.9l1.9-1.9l2-2l2-2l2-2l2-2l2.1-2.1l2.1-2.1l2.1-2.1l2.2-2.2l2.2-2.2 l2.3-2.3l2.7-0.7h8.6l2.4-2.4l2.5-2.4l2.5-2.5l2.6-2.6l2.7-2.6l2.9-0.6l3,0.4l3,0.4l3,0.4l2.9,0.4l2.9,0.4l2.9,0.4l2.9,0.4 l2.9,0.4l2.9,0.4l2.9,0.4l2.9,0.4l2.9,0.4l2.9,0.4l2.9,0.4l2.9,0.4l2.8,0.8l2.4,2.4l2.4,2.4l2.3,2.3l2.3,2.3l2.2,2.2l2.2,2.2 l2.2,2.1l2.1,2.1l2.1,2.1l2,2l2,2l2,2l2,2l1.9,1.9l1.9,1.9l1.9,1.9l1.9,1.9l1.8,1.8l1.8,1.8l1.8,1.8l1.8,1.8l1.8,1.8l1.8,1.8 l1.8,1.7l1.7,1.7l1.7,1.7l1.7,1.7l1.7,1.7l1.7,1.7l1.7,1.7l1.7,1.7l1.7,1.7l1.7,1.7l1.7,1.7l0.1,3.5L199.8,132L199.8,132z"></path><path id="grass_1_" class="st3" d="M70.2,169.7l-9.8-23.5l0.2-13.4l-26.1-24l2-2.4l51-51h4.4l6.1-0.1l13.1-13l41,5.7h0.3 l62.9,61.5L191,133.3l-0.5,11.7l-8.6,22.5l-46.5,47.1h-18.8L70.2,169.7z"></path><path id="infield_sand" class="st6" d="M163.9,166.7l-1-1c-5-16-20-27.7-37.7-27.7s-32.7,11.7-37.7,27.7l-1,1l32.7,32.7 c-0.5,0.9-0.7,1.9-0.7,3c0,3.7,3,6.7,6.7,6.7s6.7-3,6.7-6.7c0-1.1-0.3-2.1-0.7-3L163.9,166.7z M122.5,154.7 c0.8,0.5,1.7,0.8,2.7,0.8s1.9-0.3,2.7-0.8l16.8,16.8c-1.6,1.6-1.6,4.1,0,5.6l2.5,2.5l-17.7,17.7c-1.2-1-2.7-1.6-4.3-1.6 s-3.2,0.6-4.3,1.6l-17.7-17.7l2.5-2.5c1.6-1.5,1.6-4,0-5.6L122.5,154.7z"></path></g><g id="persistent_1_"><g id="mound_1_"><path id="pitching-mound_1_" class="st6" d="M122.5,174.7c-1.5,1.5-1.5,3.9,0,5.4s3.9,1.5,5.4,0c1.5-1.5,1.5-3.9,0-5.4 C126.5,173.2,124,173.2,122.5,174.7z"></path><path id="pitching-rubber_1_" class="st7" d="M123.2,176.6h4v1.6h-4V176.6z"></path></g><g id="lines_1_"><path id="left-foul-line_1_" class="st8" d="M125.2,203.2l-97.1-97.1"></path><path id="right-foul-line_1_" class="st8" d="M125.2,203.2l97.1-97.2"></path></g><g id="bases_2_"><rect id="third-base_2_" x="99.2" y="175.1" transform="matrix(0.7073 -0.7069 0.7069 0.7073 -95.3473 122.8833)" class="st9" width="3" height="3"></rect><rect id="first-base_2_" x="148.1" y="175.2" transform="matrix(0.7073 -0.7069 0.7069 0.7073 -81.1078 157.4629)" class="st9" width="3" height="3"></rect><rect id="second-base_2_" x="123.7" y="148.6" transform="matrix(0.707 -0.7073 0.7073 0.707 -69.4796 132.5406)" class="st10" width="3" height="3"></rect><polygon id="home_2_" class="st7" points="126.7,201.8 125.2,203.4 123.7,201.8 123.7,200.3 126.7,200.3  "></polygon></g></g></g></svg><style>
                        .st3{fill:#b2dfdb;}
                        .st4{font-family:'Roboto Condensed';}
                        .st6{fill:#fff; stroke: #e2e2e2; stroke-width: 0.5;}
                        .st7{fill:#c2c2c2;stroke:#FFFFFF;stroke-width:0.75;}
                        .st8{fill:none;stroke:#c2c2c2;stroke-width:0.75;}
                        .st9{fill:#c2c2c2;stroke:#FFFFFF;stroke-width:0.75;stroke-miterlimit:4;}
                        #compass {visibility: hidden;}
                        #distances {visibility: visible;}
                        #TEX .st0{fill:#b2dfdb;}
                        #TEX .st3{fill:#5b5b5b;}
                        #TEX .st0{font-family:'Roboto Condensed';}
                    </style></g></svg>