<svg xmlns="http://www.w3.org/2000/svg" viewBox="16.795000076293945 52.862396240234375 468.2358703613281 401.091064453125"><g id="evp-venue-svg"><svg id="_x33_1_1_" xmlns="http://www.w3.org/2000/svg" xmlns:xlink="http://www.w3.org/1999/xlink" x="0px" y="0px" viewBox="0 0 250 250" xml:space="preserve" width="500" height="500"><style type="text/css">
	.st0{fill:#5B5B5B;}
	.st1{fill:#7F7F7F;}
	.st2{fill:#FFEC5F;}
	.st3{fill:#68836A;}
	.st4{font-family:'ArialMT';}
	.st5{font-size:11px;}
	.st6{fill:#A88B49;}
	.st7{fill:#FFFFFF;stroke:#FFFFFF;stroke-width:0.75;}
	.st8{fill:none;stroke:#FFFFFF;stroke-width:0.75;}
	.st9{fill:#FFFFFF;stroke:#FFFFFF;stroke-width:0.75;stroke-miterlimit:4;}
	.st10{fill:#FFFFFF;stroke:#FFFFFF;stroke-width:0.75;stroke-miterlimit:4.0018;}
</style><g id="PIT"><g id="compass"><path class="st0" d="M233.8,193.7l-5.8,7.1l-6.9,4l4.8-6.4L233.8,193.7z"></path><path class="st1" d="M238.6,189.2c5.7,6.4,5.1,16.2-1.3,21.9c-6.4,5.7-16.2,5.1-21.9-1.3c-5.7-6.4-5.1-16.2,1.3-21.9 C223.2,182.2,233,182.8,238.6,189.2z M216.4,208.9c5.2,5.9,14.2,6.4,20,1.2c5.9-5.2,6.4-14.2,1.2-20c-5.2-5.9-14.2-6.4-20-1.2 S211.2,203.1,216.4,208.9z"></path><path class="st0" d="M224.1,199.3c0.1-1.6,1.5-2.9,3.1-2.8c1.6,0.1,2.9,1.5,2.8,3.1c-0.1,1.6-1.5,2.9-3.1,2.8 C225.2,202.4,224,201,224.1,199.3z M220.9,206.6l-2.3,2l-0.3-0.4l0.7-2.5l-1.6,1.4l-0.3-0.4l2.3-2l0.3,0.4l-0.7,2.5l1.6-1.4 L220.9,206.6z"></path><path class="st2" d="M225.4,199.4c0.1-0.9,0.8-1.6,1.7-1.5s1.6,0.8,1.5,1.7s-0.8,1.6-1.7,1.5C226,201.1,225.3,200.3,225.4,199.4z"></path></g><g id="distances"><text id="right" transform="matrix(1 0 0 1 223.0479 117.5005)" class="st3 st4 st5">320</text><text id="right-center_1_" transform="matrix(1 0 0 1 188.5293 61.7378)" class="st3 st4 st5">375</text><text id="center" transform="matrix(1 0 0 1 127.5479 36.4312)" class="st3 st4 st5">399</text><text id="left-center_1_" transform="matrix(1 0 0 1 59.9863 39.1558)" class="st3 st4 st5">410</text><text id="left-left-center_1_" transform="matrix(1 0 0 1 38.043 57.9976)" class="st3 st4 st5">379</text><text id="left" transform="matrix(1 0 0 1 8.3975 114.6216)" class="st3 st4 st5">325</text></g><g id="field"><path id="Outfield_1_" class="st6" d="M29.3,109.8l0.3-2l0.3-3.1l0.3-3.2l0.3-3.3l0.3-3.4l0.3-3.5l0.3-3.7l0.3-3.8l0.3-3.9l2-1.9 l2.1-1.7l2.1-1.7l2.1-1.8l2.1-1.8l2.1-1.8l2.1-1.8l2.1-1.8l2.2-1.8l2.2-1.8l2.2-1.8l2.2-1.8l2.2-1.9l2.2-1.9l2.3-1.9l2.3-1.9 l2.3-1.9l2.4-2l2.4-2l2.4-2l2.5-2.1l2.5-2.1l4.3,5l2.9-0.3l2.8-0.5l2.8-0.5l2.8-0.5l2.8-0.5l2.8-0.5l2.8-0.5l2.8-0.5l2.8-0.5 l2.8-0.5l2.8-0.5l2.9-0.5l2.9-0.5l2.9-0.4l2.9,0.6l2.9,0.6l2.8,0.6l2.8,0.6l2.8,0.6l2.8,0.6l2.8,0.6l2.8,0.6l2.8,0.6l2.8,0.6 l2.7,1.1l2.6,1.3l2.6,1.3l2.6,1.3l2.5,1.3l2.5,1.3l2.5,1.3l2.5,1.3l2.5,1.3l2.5,1.2l2.4,1.2l2.4,1.2l2.2,1.8l1.8,2.6l1.8,2.6 l1.7,2.5l1.7,2.5l1.7,2.4l1.6,2.4l1.6,2.3l1.6,2.3l1.6,2.3l1.5,2.2l1.5,2.2l1.5,2.2l1.5,2.1l1.4,2.1l1.4,2.1l1.4,2.1l1.4,2l1.4,2 l1.4,2l1.4,2l1.4,2l1.4,1.9l2.5,3.3l-20.2,20.3l-9.4,28c0,0-41.7,49.3-51.4,59.8c-7.5,8.1-13.9,6.8-16.9,6.8 c-9.4,0-16.6-8.7-21.4-14.9L49,143.1l1-11.7C50,131.4,29.3,109.8,29.3,109.8z"></path><path id="grass_1_" class="st3" d="M125.2,219.2h-1.4c-5.8,0-11.7-7.4-15.2-11.9l-51.4-66.7l1-12.2L37.7,107l2-23.2L80,50l2,2.3 l7.3-0.9l34.1-5.6l1.4-0.2l26.1,5.6l1.7,0.7L179,65.3l0.6,0.5l31.5,45.7l-16.7,16.8l-9.6,28.3c-6.4,7.5-41.5,49-50.1,58.3 C130.8,219.2,125.5,219.2,125.2,219.2L125.2,219.2z"></path><path id="infield_sand" class="st6" d="M163.9,166.7l-1-1c-5-16-20-27.7-37.7-27.7s-32.7,11.7-37.7,27.7l-1,1l32.7,32.7 c-0.5,0.9-0.7,1.9-0.7,3c0,3.7,3,6.7,6.7,6.7s6.7-3,6.7-6.7c0-1.1-0.3-2.1-0.7-3L163.9,166.7z M122.5,154.7 c0.8,0.5,1.7,0.8,2.7,0.8s1.9-0.3,2.7-0.8l16.8,16.8c-1.6,1.6-1.6,4.1,0,5.6l2.5,2.5l-17.7,17.7c-1.2-1-2.7-1.6-4.3-1.6 s-3.2,0.6-4.3,1.6l-17.7-17.7l2.5-2.5c1.6-1.5,1.6-4,0-5.6L122.5,154.7z"></path></g><g id="persistent_1_"><g id="mound_1_"><path id="pitching-mound_1_" class="st6" d="M122.5,174.7c-1.5,1.5-1.5,3.9,0,5.4s3.9,1.5,5.4,0c1.5-1.5,1.5-3.9,0-5.4 C126.5,173.2,124,173.2,122.5,174.7z"></path><path id="pitching-rubber_1_" class="st7" d="M123.2,176.6h4v1.6h-4V176.6z"></path></g><g id="lines_1_"><path id="left-foul-line_2_" class="st8" d="M125.2,203.2l-95.5-95.5"></path><path id="right-foul-line_2_" class="st8" d="M125.2,203.2l94-94.1"></path></g><g id="bases_2_"><rect id="third-base_2_" x="99.2" y="175.1" transform="matrix(0.7073 -0.7069 0.7069 0.7073 -95.3473 122.8833)" class="st9" width="3" height="3"></rect><rect id="first-base_2_" x="148.1" y="175.2" transform="matrix(0.7073 -0.7069 0.7069 0.7073 -81.1078 157.4629)" class="st9" width="3" height="3"></rect><rect id="second-base_2_" x="123.7" y="148.6" transform="matrix(0.707 -0.7073 0.7073 0.707 -69.4796 132.5406)" class="st10" width="3" height="3"></rect><polygon id="home_2_" class="st7" points="126.7,201.8 125.2,203.4 123.7,201.8 123.7,200.3 126.7,200.3  "></polygon></g></g></g></svg><style>
                        .st3{fill:#b2dfdb;}
                        .st4{font-family:'Roboto Condensed';}
                        .st6{fill:#fff; stroke: #e2e2e2; stroke-width: 0.5;}
                        .st7{fill:#c2c2c2;stroke:#FFFFFF;stroke-width:0.75;}
                        .st8{fill:none;stroke:#c2c2c2;stroke-width:0.75;}
                        .st9{fill:#c2c2c2;stroke:#FFFFFF;stroke-width:0.75;stroke-miterlimit:4;}
                        #compass {visibility: hidden;}
                        #distances {visibility: visible;}
                        #TEX .st0{fill:#b2dfdb;}
                        #TEX .st3{fill:#5b5b5b;}
                        #TEX .st0{font-family:'Roboto Condensed';}
                    </style></g></svg>