<svg xmlns="http://www.w3.org/2000/svg" viewBox="14.616199493408203 52.85540008544922 470.3859558105469 392.5966796875"><g id="evp-venue-svg"><svg id="_x32_680" xmlns="http://www.w3.org/2000/svg" xmlns:xlink="http://www.w3.org/1999/xlink" x="0px" y="0px" viewBox="0 0 250 250" xml:space="preserve" width="500" height="500"><style type="text/css">
	.st0{fill:#5B5B5B;}
	.st1{fill:#7F7F7F;}
	.st2{fill:#FFEC5F;}
	.st3{fill:#68836A;}
	.st4{font-family:'ArialMT';}
	.st5{font-size:11px;}
	.st6{fill:#A88B49;}
	.st7{fill:#FFFFFF;stroke:#FFFFFF;stroke-width:0.75;}
	.st8{fill:none;stroke:#FFFFFF;stroke-width:0.75;}
	.st9{fill:#FFFFFF;stroke:#FFFFFF;stroke-width:0.75;stroke-miterlimit:4;}
	.st10{fill:#FFFFFF;stroke:#FFFFFF;stroke-width:0.75;stroke-miterlimit:4.0018;}
</style><g id="SDP"><g id="compass"><path class="st0" d="M227,208.5l-1.6-9.1l1.5-7.8l1.7,7.8L227,208.5z"></path><path class="st1" d="M227.2,215c-8.5,0.1-15.6-6.8-15.7-15.3c-0.1-8.5,6.8-15.6,15.3-15.7c8.5-0.1,15.6,6.8,15.7,15.3 C242.6,207.9,235.8,214.9,227.2,215z M226.8,185.3c-7.8,0.1-14.1,6.5-14,14.4c0.1,7.8,6.5,14.1,14.4,14c7.8-0.1,14.1-6.5,14-14.4 C241.1,191.5,234.7,185.2,226.8,185.3z"></path><path class="st0" d="M229.1,197.4c1.2,1.1,1.2,3,0,4.2c-1.1,1.2-3,1.2-4.2,0.1c-1.2-1.1-1.2-3-0.1-4.2 C226,196.3,227.9,196.2,229.1,197.4z M225.7,190.3v-3.1h0.5l1.4,2.1v-2.1h0.5v3.1h-0.5l-1.4-2.1v2.1H225.7z"></path><path class="st2" d="M228.2,198.3c0.7,0.6,0.7,1.7,0,2.3c-0.6,0.7-1.7,0.7-2.3,0c-0.7-0.6-0.7-1.7,0-2.3 C226.5,197.7,227.5,197.7,228.2,198.3z"></path></g><g id="distances"><text id="right" transform="matrix(1 0 0 1 220.4932 116.9326)" class="st3 st4 st5">322</text><text id="center" transform="matrix(1 0 0 1 120.7759 36.4277)" class="st3 st4 st5">396</text><text id="left" transform="matrix(1 0 0 1 7.3081 114.4888)" class="st3 st4 st5">334</text></g><g id="field" transform="matrix(.98 0 0 -.98 250 420)"><path id="Outfield_1_" class="st6" d="M-228,314.7v7l2.2,1.3l1.5,2l1.4,2.2l1.4,2.2l1.4,2.2l1.6,2l1.8,1.8l1.8,1.8l1.8,1.8 l1.8,1.8l1.8,1.8l1.9,1.8l1.9,1.9l1.9,1.9l1.9,1.9l1.9,1.9l1.9,1.9l2,1.9l2,2l2,2l2,2l2.1,2l2.1,2.1l2.1,2.1l2.1,2.1l2.2,2.2 l2.2,2.2l2.3,2.3l2.4,2.1l2.6,1.5l2.6,1.5l2.6,1.5l2.6,1.5l2.7,1.5l3,0.1h17.6l2.8,1.6l2.9,1h26.4l2.9-0.4l2.9-0.6l2.9-0.6 l2.9-0.6l2.9-0.6l2.9-0.6l2.7-1.5l2.6-1.6l2.6-1.6l2.6-1.6l2.5-1.8l2.3-2.3l2.2-2.2l2.2-2.2l2.2-2.2l2.1-2.1l2.1-2.1l2.1-2.1l2-2 l2-2l2-2l2-2l2-2l1.9-1.9l1.9-1.9l1.9-1.9l1.9-1.9l1.9-1.9l1.9-1.9l1.9-1.9l1.8-1.8l0.6-3.3v-11.5l1.5-1.9l1.7-1.7l1.5-1.9 l0.6-10.6l-31.5-31.5l-20.4-35l-2.4-2.4l-4.8-7.3l-16.3-17.6l-2.7-0.5l-7.2-6.8l-8.2-4h-7.3l-8.8,3.7l-9.6,9.6l-3-0.3l-13.5,14 l-4.2,8.1l-3.6,3.2l-23.4,36.5v7.2L-228,314.7L-228,314.7z"></path><path id="grass_1_" class="st3" d="M-129.5,210.3l-5.9,2.5l-11.3,11.2l-17.1,18.4l-3.8,3.5l-21.6,33.6v8.2l-25.9,26.8l-0.7,8.1 l3.2,5.6l43,42.9l1.6,1.4l10.6,6.1h0.8l19.6,0.1l4,0.2l3,2.3l22.7,0.1l2.2-0.3l13-2.5l1.4-0.8l7.3-4.5l1.7-1.2l37-40 c0,0,1.7-1.7,2.1-5.2c0.4-3.5,0-20.4,0-20.4l-25.6-25.6l-20.4-35l-2.2-2.2l-21.3-22.9l-8.1-7.7l-5.3-2.6h-4V210.3z"></path><path id="infield_sand" class="st6" d="M-87.9,258.5l-1,1c-5.1,16.3-20.4,28.3-38.5,28.3s-33.4-11.9-38.5-28.3l-1-1l33.4-33.4 c-0.5-0.9-0.7-2-0.7-3.1c0-3.8,3.1-6.8,6.8-6.8s6.8,3.1,6.8,6.8c0,1.1-0.3,2.1-0.7,3.1L-87.9,258.5z M-130.1,270.7 c0.8-0.5,1.8-0.8,2.8-0.8s2,0.3,2.8,0.8l17.1-17.1c-1.6-1.6-1.6-4.2,0-5.7l2.6-2.6l-18-18c-1.2,1-2.7,1.6-4.4,1.6 s-3.2-0.6-4.4-1.6l-18,18l2.6,2.6c1.6,1.5,1.6,4.1,0,5.7L-130.1,270.7z"></path></g><g id="persistent_1_"><g id="mound_1_"><path id="pitching-mound_1_" class="st6" d="M122.5,174.7c-1.5,1.5-1.5,3.9,0,5.4s3.9,1.5,5.4,0c1.5-1.5,1.5-3.9,0-5.4 C126.5,173.2,124,173.2,122.5,174.7z"></path><path id="pitching-rubber_1_" class="st7" d="M123.2,176.6h4v1.6h-4V176.6z"></path></g><g id="lines_1_"><path id="left-foul-line_1_" class="st8" d="M125.2,203.2l-98.6-98.6"></path><path id="right-foul-line_2_" class="st8" d="M125.2,203.2l94.5-94.6"></path></g><g id="bases_2_"><rect id="third-base_2_" x="99.2" y="175.1" transform="matrix(0.7073 -0.7069 0.7069 0.7073 -95.3473 122.8833)" class="st9" width="3" height="3"></rect><rect id="first-base_2_" x="148.1" y="175.2" transform="matrix(0.7073 -0.7069 0.7069 0.7073 -81.1078 157.4629)" class="st9" width="3" height="3"></rect><rect id="second-base_2_" x="123.7" y="148.6" transform="matrix(0.707 -0.7073 0.7073 0.707 -69.4796 132.5406)" class="st10" width="3" height="3"></rect><polygon id="home_2_" class="st7" points="126.7,201.8 125.2,203.4 123.7,201.8 123.7,200.3 126.7,200.3  "></polygon></g></g></g></svg><style>
                        .st3{fill:#b2dfdb;}
                        .st4{font-family:'Roboto Condensed';}
                        .st6{fill:#fff; stroke: #e2e2e2; stroke-width: 0.5;}
                        .st7{fill:#c2c2c2;stroke:#FFFFFF;stroke-width:0.75;}
                        .st8{fill:none;stroke:#c2c2c2;stroke-width:0.75;}
                        .st9{fill:#c2c2c2;stroke:#FFFFFF;stroke-width:0.75;stroke-miterlimit:4;}
                        #compass {visibility: hidden;}
                        #distances {visibility: visible;}
                        #TEX .st0{fill:#b2dfdb;}
                        #TEX .st3{fill:#5b5b5b;}
                        #TEX .st0{font-family:'Roboto Condensed';}
                    </style></g></svg>