<svg xmlns="http://www.w3.org/2000/svg" viewBox="17.646400451660156 52.540000915527344 467.37579345703125 401.05682373046875"><g id="evp-venue-svg"><svg id="_x36_80" xmlns="http://www.w3.org/2000/svg" xmlns:xlink="http://www.w3.org/1999/xlink" x="0px" y="0px" viewBox="0 0 250 250" xml:space="preserve" width="500" height="500"><style type="text/css">
	.st0{fill:#5B5B5B;}
	.st1{fill:#7F7F7F;}
	.st2{fill:#FFEC5F;}
	.st3{fill:#68836A;}
	.st4{font-family:'ArialMT';}
	.st5{font-size:11px;}
	.st6{fill:#A88B49;}
	.st7{fill:#FFFFFF;stroke:#FFFFFF;stroke-width:0.75;}
	.st8{fill:none;stroke:#FFFFFF;stroke-width:0.75;}
	.st9{fill:#FFFFFF;stroke:#FFFFFF;stroke-width:0.75;stroke-miterlimit:4;}
	.st10{fill:#FFFFFF;stroke:#FFFFFF;stroke-width:0.75;stroke-miterlimit:4.0018;}
</style><g id="SEA"><g id="compass"><path class="st0" d="M232.6,206.5l-6.9-6l-3.8-7.1l6.3,5L232.6,206.5z"></path><path class="st1" d="M237,211.4c-6.5,5.5-16.3,4.6-21.8-1.9s-4.6-16.3,1.9-21.8s16.3-4.6,21.8,1.9S243.5,205.9,237,211.4z  M217.9,188.7c-6,5-6.8,14-1.7,20c5,6,14,6.8,20,1.7c6-5,6.8-14,1.7-20C232.9,184.4,223.9,183.6,217.9,188.7z"></path><path class="st0" d="M227.3,196.6c1.6,0.1,2.8,1.6,2.7,3.2c-0.1,1.6-1.6,2.8-3.2,2.7c-1.6-0.1-2.8-1.6-2.7-3.2 C224.2,197.6,225.6,196.4,227.3,196.6z M220.1,193.2l-2-2.4l0.4-0.3l2.4,0.7l-1.4-1.6l0.4-0.3l2,2.4l-0.4,0.3l-2.5-0.7l1.4,1.6 L220.1,193.2L220.1,193.2z"></path><path class="st2" d="M227.2,197.9c0.9,0.1,1.6,0.9,1.5,1.8c-0.1,0.9-0.9,1.6-1.8,1.5c-0.9-0.1-1.6-0.9-1.5-1.8 C225.5,198.5,226.3,197.8,227.2,197.9z"></path></g><g id="distances"><text id="right" transform="matrix(1 0 0 1 223.0488 115.4155)" class="st3 st4 st5">325</text><text id="right-center_1_" transform="matrix(1 0 0 1 156.7998 45.4438)" class="st3 st4 st5">380</text><text id="center" transform="matrix(1 0 0 1 127.6758 36.27)" class="st3 st4 st5">401</text><text id="left-left-center_1_" transform="matrix(1 0 0 1 57.5859 52.7603)" class="st3 st4 st5">376</text><text id="left" transform="matrix(1 0 0 1 8.8232 114.4155)" class="st3 st4 st5">331</text></g><g id="field"><path id="Outfield_1_" class="st6" d="M65.6,172l-18.4-36.9l0.3-3.9l-19.9-20.9l-0.7-2.9l0.6-1.6l-0.1-3.5l1.7-1.8l1.7-1.8 l1.7-1.8l1.7-1.8l1.7-1.8l1.7-1.8l1.7-1.9l1.7-1.9l1.7-1.9l1.7-1.9l1.8-1.9l1.8-1.9l1.8-1.9l1.8-2l1.8-2l1.8-2l1.9-2l1.9-2.1 l1.9-2.1l2-2.1l2-2.2l2-2.2l2.3-1.7l2.3-1.5l2.4-1.5l2.4-1.5l2.4-1.6l2.4-1.6l2.5-1.6l2.6-1.3l2.6-1l2.7-1l2.7-1l2.7-1.1l2.7-1.1 l2.7-1.1l2.8-1.1l2.8-1.1l2.8-1.1l2.8-1.1l2.9-1.1l2.9-0.9l3,0.9l2.9,0.9l2.9,0.9l2.9,0.9l2.8,0.9l2.8,0.9l2.8,0.9l2.8,0.9 l2.7,0.9l2.7,0.9l2.7,0.9l2.7,0.9l2.7,0.9l2.7,0.8l2.7,0.8l2.7,0.8l2.7,0.8l2.7,0.8l2.6,0.8l2.6,0.8l2.6,0.8l2.3,1.9l2,2.5l2,2.4 l1.9,2.4l1.9,2.3l1.9,2.3l1.8,2.3l1.8,2.2l1.8,2.2l1.7,2.2l1.7,2.1l1.7,2.1l1.7,2.1l1.7,2l1.6,2l1.6,2l1.6,2l1.6,2l1.6,1.9 l1.6,1.9l1.5,1.9l1.5,1.9l1.5,1.9l1.5,1.9l1.5,1.9l1.5,1.9l0.9,0.9L200,129.2v3.2l-19.8,39.4l-12,14.6c0,0-21.8,28-26.1,32.5 c-4.7,5-18.6,15.3-34.9-0.7L65.6,172z"></path><path id="grass_1_" class="st3" d="M126.2,219.4c-3.7,0-9.9-2.5-13.1-5.6l-31.8-35.5L71.5,168l-19.1-35.9l0.4-5.5l-17.9-16.9V109 l0.7-1.9v-1.8l36.7-40l1.4-1.1l13.8-8.9l1.9-0.9L119,42.8l0.2-0.1L173,59.8l0.5,0.4l37.9,47L192,125.8v4.9l-17.6,39l-6,6.8 l-29.6,36.8C137.3,214.6,132.3,219.4,126.2,219.4L126.2,219.4z"></path><path id="infield_sand" class="st6" d="M163.9,166.7l-1-1c-5-16-20-27.7-37.7-27.7s-32.7,11.7-37.7,27.7l-1,1l32.7,32.7 c-0.5,0.9-0.7,1.9-0.7,3c0,3.7,3,6.7,6.7,6.7s6.7-3,6.7-6.7c0-1.1-0.3-2.1-0.7-3L163.9,166.7z M122.5,154.7 c0.8,0.5,1.7,0.8,2.7,0.8s1.9-0.3,2.7-0.8l16.8,16.8c-1.6,1.6-1.6,4.1,0,5.6l2.5,2.5l-17.7,17.7c-1.2-1-2.7-1.6-4.3-1.6 s-3.2,0.6-4.3,1.6l-17.7-17.7l2.5-2.5c1.6-1.5,1.6-4,0-5.6L122.5,154.7z"></path></g><g id="persistent_1_"><g id="mound_1_"><path id="pitching-mound_1_" class="st6" d="M122.5,174.7c-1.5,1.5-1.5,3.9,0,5.4s3.9,1.5,5.4,0c1.5-1.5,1.5-3.9,0-5.4 C126.5,173.2,124,173.2,122.5,174.7z"></path><path id="pitching-rubber_1_" class="st7" d="M123.2,176.6h4v1.6h-4V176.6z"></path></g><g id="lines_1_"><path id="left-foul-line_1_" class="st8" d="M125.2,203.2l-97.6-97.5"></path><path id="right-foul-line_1_" class="st8" d="M125.2,203.2l96.2-96.3"></path></g><g id="bases_2_"><rect id="third-base_2_" x="99.2" y="175.1" transform="matrix(0.7073 -0.7069 0.7069 0.7073 -95.3473 122.8833)" class="st9" width="3" height="3"></rect><rect id="first-base_2_" x="148.1" y="175.2" transform="matrix(0.7073 -0.7069 0.7069 0.7073 -81.1078 157.4629)" class="st9" width="3" height="3"></rect><rect id="second-base_2_" x="123.7" y="148.6" transform="matrix(0.707 -0.7073 0.7073 0.707 -69.4796 132.5406)" class="st10" width="3" height="3"></rect><polygon id="home_2_" class="st7" points="126.7,201.8 125.2,203.4 123.7,201.8 123.7,200.3 126.7,200.3  "></polygon></g></g></g></svg><style>
                        .st3{fill:#b2dfdb;}
                        .st4{font-family:'Roboto Condensed';}
                        .st6{fill:#fff; stroke: #e2e2e2; stroke-width: 0.5;}
                        .st7{fill:#c2c2c2;stroke:#FFFFFF;stroke-width:0.75;}
                        .st8{fill:none;stroke:#c2c2c2;stroke-width:0.75;}
                        .st9{fill:#c2c2c2;stroke:#FFFFFF;stroke-width:0.75;stroke-miterlimit:4;}
                        #compass {visibility: hidden;}
                        #distances {visibility: visible;}
                        #TEX .st0{fill:#b2dfdb;}
                        #TEX .st3{fill:#5b5b5b;}
                        #TEX .st0{font-family:'Roboto Condensed';}
                    </style></g></svg>