<svg xmlns="http://www.w3.org/2000/svg" xmlns:xlink="http://www.w3.org/1999/xlink" version="1.1" id="_x32_395" x="0px" y="0px" viewBox="0 0 250 250" style="enable-background:new 0 0 250 250;" xml:space="preserve">
<style type="text/css">
	.st0{fill:#5B5B5B;}
	.st1{fill:#7F7F7F;}
	.st2{fill:#FFEC5F;}
	.st3{fill:#b2dfdb;}
	.st4{font-family:'Roboto Condensed'; }
	.st5{font-size:11px;}
	.st6{fill:#fff; stroke: #e2e2e2; stroke-width: 0.5; }
	.st7{fill:#c2c2c2;stroke:#FFFFFF;stroke-width:0.75;}
	.st8{fill:none;stroke:#c2c2c2;stroke-width:0.75;}
	.st9{fill:#c2c2c2;stroke:#FFFFFF;stroke-width:0.75;stroke-miterlimit:4;}
	.st10{fill:#c2c2c2;stroke:#FFFFFF;stroke-width:0.75;stroke-miterlimit:4.0004;}
</style>
<g id="SFG">
	<g id="compass">
		<polygon class="st0" points="235.9,200.3 226.8,201.1 219.1,199 227,197.9   "></polygon>
		<path class="st1" d="M242.5,200.6c-0.6,8.5-8.1,15-16.6,14.4c-8.5-0.6-15-8.1-14.4-16.6c0.6-8.5,8.1-15,16.6-14.4    C236.7,184.7,243.1,192.1,242.5,200.6z M212.9,198.5c-0.6,7.8,5.3,14.6,13.1,15.2c7.8,0.6,14.6-5.3,15.2-13.1    c0.6-7.8-5.3-14.6-13.1-15.2C220.2,184.8,213.4,190.7,212.9,198.5z"></path>
		<path class="st0" d="M225.1,197.3c1.2-1.1,3.1-0.9,4.2,0.3c1.1,1.2,0.9,3.1-0.3,4.2c-1.2,1.1-3.1,0.9-4.2-0.3    C223.7,200.2,223.8,198.3,225.1,197.3z"></path>
		<g>
			<path class="st0" d="M217.7,200.1l-3.1-0.2l0-0.5l2.2-1.3l0,0l-2.1-0.2l0-0.5l3.1,0.2l0,0.5l-2.2,1.3l0,0l2.1,0.2L217.7,200.1z"></path>
		</g>
		<path class="st2" d="M225.9,198.3c0.7-0.6,1.7-0.5,2.3,0.2c0.6,0.7,0.5,1.7-0.2,2.3c-0.7,0.6-1.7,0.5-2.3-0.2    C225.2,199.9,225.2,198.9,225.9,198.3z"></path>
	</g>
	<g id="distances">
		<g id="right">
			<text transform="matrix(1 0 0 1 219.5801 120.0679)" class="st3 st4 st5">309</text>
		</g>
		<g id="right-right-center_1_">
			<text transform="matrix(1 0 0 1 192.8008 65.4839)" class="st3 st4 st5">365</text>
		</g>
		<g id="right-center_1_">
			<text transform="matrix(1 0 0 1 163.1299 36.9458)" class="st3 st4 st5">421</text>
		</g>
		<g id="left-center_1_">
			<text transform="matrix(1 0 0 1 69.9424 40.5942)" class="st3 st4 st5">399</text>
		</g>
		<g id="left-left-center_1_">
			<text transform="matrix(1 0 0 1 55.8916 53.4839)" class="st3 st4 st5">382</text>
		</g>
		<text id="left" transform="matrix(1 0 0 1 7.2314 97.0532)" class="st3 st4 st5">339</text>
	</g>
	<g id="field">
		<g id="Outfied">
			<polygon class="st6" points="215.6,113.2 214.8,110.9 213.9,108.6 213,106.2 212.1,103.7 211.1,101.3 210.2,98.8 209.3,96.2      208.3,93.6 207.2,90.9 206.2,88.1 205.1,85.3 204.1,82.4 202.9,79.4 201.8,76.4 200.6,73.2 200.3,72.4 198.4,70.8 196,69.7      193.6,68.6 192,65.8 190.7,62.4 189.3,58.7 187.9,55 186.4,51.1 184.9,47.1 183.3,42.9 181.9,39.3 178.8,39.3 175.6,39.3      172.5,39.3 169.4,39.3 166.4,39.3 163.3,39.3 160.3,39.3 157.3,39.3 154.4,39.3 151.4,39.3 148.5,39.3 145.6,39.3 142.7,39.3      139.8,39.3 136.9,39.3 134.1,39.3 131.2,39.3 128.3,39.3 125.4,39.3 122.6,39.3 119.7,39.3 116.8,39.3 114,39.3 111.1,39.3      108.2,39.3 105.3,39.3 102.4,39.3 99.5,39.3 96.5,39.4 93.9,39.4 93.3,39.9 90.7,42 88.3,44.1 85.8,46.1 83.4,48.1 81.1,50.1      78.8,52 76.5,53.9 74.3,55.8 72,57.7 69.8,59.5 67.7,61.3 65.5,63.1 63.4,64.9 61.3,66.7 59.3,68.4 57.2,70.1 55.2,71.8      53.1,73.5 51.1,75.2 49.1,76.9 47.1,78.6 45.1,80.2 43.2,81.9 41.2,83.5 39.3,85.2 37.3,86.8 35.3,88.5 33.4,90.1 31.5,91.7      29.5,93.4 28.1,95.5 27,98.1 26,100.7 25.1,103 125.4,203.4    "></polygon>
			<path class="st6" d="M216.9,116.5l-1.9-5l-0.2-0.6l-0.9-2.4l-0.1-0.2l-13.4-35.9l-0.2-0.1l-1.9-1.6l-2.4-1.1l-2.4-1.1l-1.6-2.8     l-1.3-3.5l-1.4-3.6l-1.4-3.7l-1.5-3.9l-1.5-4l-1.6-4.2l-1.4-3.7h-3.1h-3.1h-3.1h-3.1h-3.1h-3h-3h-3h-2.9l-3,0h-2.9h-2.9h-2.9     h-2.9h-2.9h-2.9h-2.9h-2.9h-2.9h-2.9h-2.9h-2.9H114h-2.9h-2.9h-2.9h-2.9h-2.9l-2.9,0h-2.7h-0.3L91,41l-2.5,2.1L86,45.2l-2.4,2     l-2.4,2l-2.3,2l-2.3,1.9L74.3,55l-2.2,1.9l-2.2,1.8l-2.2,1.8l-2.2,1.8l-2.1,1.8l-2.1,1.8l-2.1,1.8l-2.1,1.8l-2,1.7l-2.1,1.7     l-2,1.7l-2,1.7l-2,1.7l-2,1.7l-2,1.7l-2,1.6l-2,1.7l-2,1.6l-2,1.6l-1.9,1.7l-2,1.6l-2,1.6l-1.4,2.2l-1.1,2.5l-1.1,2.5l-1.1,2.4     l0.5,0.5l-0.1,0.2l-1.4,3.7L42,126l22.5,35.2l43.7,50.9c13.5,15.4,27.3,4.9,27.3,4.9l43.9-50.7l12.1-14.8     c1-1.6,6.3-18.6,6.3-18.6l10.3-10l4.8-1.2l-1.2-2.3L216.9,116.5z"></path>
		</g>
		<path id="grass_1_" class="st3" d="M126,215c-2.1,0-9.1-0.9-13.5-6.7c-4.4-5.8-48.3-56.7-48.3-56.7l-16.3-26.3l-16.5-16.2l1.1-3.1    l2.7-6.8l0.4-0.5l60.9-51.6l79.2,0.1l9.1,22l3.2,5.6l5.9,2.7l13.8,34.9l-0.3,0.1l-13.6,13.2l0.5,6.2l-6.1,5.8l1.6,8.5L135,209.6    C134.1,210.6,129.2,215,126,215z"></path>
		<path id="infield_sand_1_" class="st6" d="M163,165.8c-0.2,0.2-6-28.1-37.1-28.1c-33.4,0-39,25.5-39.5,28.1l-0.4,0.4l14.8,14.8    l0.7-0.7l18.2,17.9c-0.7,1-1.1,2.2-1.1,3.6c0,1.2,0.4,2.4,1,3.4c0,0,0,0,0,0.1c1.1,1.8,3.1,3,5.4,3c3.5,0,6.4-2.9,6.4-6.4    c0-1.5-0.5-2.8-1.3-3.9l18.7-17.7l1.5,0.5l13.5-13.5L163,165.8z M128.6,196.7c-1-0.7-2.3-1.2-3.7-1.2c-1.5,0-2.8,0.5-3.9,1.3    l-17.6-18.2c0,0,6.2-5.6,2.7-10.2l17.4-14.5c0.5-0.3,1.1-0.4,1.8-0.4c0.9,0,1.7,0.5,2.3,1.1c0,0,0.1,0,0.1,0.1l16.2,15.5    c-0.5,1,0.1,6.3,3,8.9L128.6,196.7z"></path>
	</g>
	<g id="persistent_1_">
		<g id="mound_1_">
			<path id="pitching-mound_1_" class="st6" d="M122.5,174.7c-1.5,1.5-1.5,3.9,0,5.4s3.9,1.5,5.4,0c1.5-1.5,1.5-3.9,0-5.4     C126.5,173.2,124,173.2,122.5,174.7z"></path>
			<rect id="pitching-rubber_1_" x="123.2" y="176.6" class="st7" width="4" height="1.6"></rect>
		</g>
		<g id="lines_1_">
			<line id="left-foul-line_2_" class="st8" x1="125.2" y1="203.2" x2="25.1" y2="103.1"></line>
			<line id="right-foul-line_2_" class="st8" x1="125.2" y1="203.2" x2="216.1" y2="112.2"></line>
		</g>
		<g id="bases_1_">
			
				<rect id="third-base_1_" x="98.4" y="174.5" transform="matrix(0.7073 -0.7069 0.7069 0.7073 -95.1992 122.1442)" class="st9" width="3" height="3"></rect>
			
				<rect id="first-base_1_" x="148.9" y="174.5" transform="matrix(0.7073 -0.7069 0.7069 0.7073 -80.4168 157.8396)" class="st9" width="3" height="3"></rect>
			
				<rect id="second-base_1_" x="123.7" y="149.3" transform="matrix(0.707 -0.7073 0.7073 0.707 -69.9813 132.7504)" class="st10" width="3" height="3"></rect>
			<polygon id="home_1_" class="st7" points="126.7,201.8 125.2,203.4 123.7,201.8 123.7,200.3 126.7,200.3    "></polygon>
		</g>
	</g>
</g>
</svg>