<svg xmlns="http://www.w3.org/2000/svg" viewBox="17.697200775146484 49.863197326660156 472.50982666015625 395.0817565917969"><g id="evp-venue-svg"><svg id="_x33_309" xmlns="http://www.w3.org/2000/svg" xmlns:xlink="http://www.w3.org/1999/xlink" x="0px" y="0px" viewBox="0 0 250 250" xml:space="preserve" width="500" height="500"><style type="text/css">
	.st0{fill:#5B5B5B;}
	.st1{fill:#7F7F7F;}
	.st2{fill:#FFEC5F;}
	.st3{fill:#68836A;}
	.st4{font-family:'ArialMT';}
	.st5{font-size:11px;}
	.st6{fill:#A88B49;}
	.st7{fill:#FFFFFF;stroke:#FFFFFF;stroke-width:0.75;}
	.st8{fill:none;stroke:#FFFFFF;stroke-width:0.75;}
	.st9{fill:#FFFFFF;stroke:#FFFFFF;stroke-width:0.75;stroke-miterlimit:4;}
	.st10{fill:#FFFFFF;stroke:#FFFFFF;stroke-width:0.75;stroke-miterlimit:4.0018;}
</style><g id="WSH"><g id="compass"><path class="st0" d="M231.3,207.4l-5.7-7.2l-2.5-7.6l5.3,6L231.3,207.4z"></path><path class="st1" d="M234.6,213c-7.5,4.2-16.9,1.5-21.1-5.9c-4.2-7.5-1.5-16.9,5.9-21.1c7.5-4.2,16.9-1.5,21.1,5.9 C244.7,199.4,242.1,208.8,234.6,213z M220.1,187.2c-6.8,3.8-9.2,12.5-5.4,19.3s12.5,9.2,19.3,5.4s9.2-12.5,5.4-19.3 C235.6,185.7,226.9,183.3,220.1,187.2z"></path><path class="st0" d="M227.8,196.7c1.6,0.4,2.5,2.1,2.1,3.7c-0.4,1.6-2.1,2.5-3.7,2.1c-1.6-0.4-2.5-2.1-2.1-3.7 C224.6,197.1,226.2,196.2,227.8,196.7z M221.4,192l-1.5-2.7l0.4-0.2l2.3,1.2l-1-1.9l0.5-0.3l1.5,2.7l-0.4,0.2l-2.3-1.2l1,1.9 L221.4,192z"></path><path class="st2" d="M227.5,197.9c0.9,0.2,1.4,1.2,1.1,2c-0.2,0.9-1.2,1.4-2,1.1c-0.9-0.2-1.4-1.2-1.1-2 C225.7,198.2,226.6,197.7,227.5,197.9z"></path></g><g id="distances"><text id="right" transform="matrix(1 0 0 1 228.6035 111.2568)" class="st3 st4 st5">335</text><text id="center" transform="matrix(1 0 0 1 96.8735 34.9316)" class="st3 st4 st5">402</text><text id="left-center_1_" transform="matrix(1 0 0 1 65.4326 49.3799)" class="st3 st4 st5">377</text><text id="left" transform="matrix(1 0 0 1 8.8486 100.2334)" class="st3 st4 st5">336</text></g><g id="field"><path id="Outfield_1_" class="st6" d="M109.7,215l-42.1-39.9l-20.1-36.5l-0.3-7.5l-22.9-23.9l1.7-3l1.3-2.2l1.3-2.2l1.3-2.2 l1.3-2.2l1.4-2.3l1.4-2.3l1.4-2.3l1.4-2.3l1.4-2.4l1.4-2.4l1.5-2.5l1.5-2.5l1.5-2.5l1.8-2.1l2.3-1.3l1.8-2.3l2.4-1.3l2.4-1.3 l2.4-1.3l2.4-1.3l2.4-1.3l2.4-1.3l2.4-1.3l2.4-1.3l2.4-1.3l2.4-1.3l2.4-1.3l2.5-1.4l2.5-1.4l2.5-1.4l2.6-1.1l3.2,1.4l2.5-1.2 l2.5-1.4l2.6-1.4l2.6-1.4l2.6-1.4l2.7-1.5l2.7-1.5l2.7-1.5l2.8-1.5l2.8-1.6l2.9-1.6l3,0.6l2.9,1.3l2.9,1.3l2.9,1.3l2.8,1.2 l2.8,1.2l2.7,1.2l2.7,1.2l2.7,1.2l2.7,1.2l2.6,1.2l2.6,1.1l2.6,1l2.6,1.1l2.5,1.1l2.5,1.1l2.5,1.1l2.5,1.1l2.5,1.1l2.5,1.1 l2.5,1.1l2.5,1.1l2.5,1.1l2.4,1.1l2.4,1.1l2.4,1.1l2.4,1.1l2.4,1.1l2.5,1.1l2.5,1.1l2.5,1.1l2.5,1.1l2.5,1.1l1.7,2.4l1.5,2.7 l1.4,2.6l1.4,2.6l1.4,2.5l1.4,2.5l1.3,2.4l1.3,2.4l1.3,2.4l1.3,2.3l1.3,2.3l1.3,2.3l1.2,2.2l1.2,2.2l2,3.2L200,134.4l1.3,8.6 c0,0-16.8,28.4-17.7,30l-43,43.2C138.4,218.1,125,230,109.7,215L109.7,215z"></path><path id="grass_1_" class="st3" d="M125.7,216.9c-2.5,0-6-1.2-8.7-3.8l-0.2-0.2L73,173l-19.8-35.5l-0.7-12.3l-18.8-18.1l17-28.4 l0.4-0.5l2.6-1.4l1.8-2.3l31-17.1l3.2,1.4l6-2.9l24.4-13.4l79,34.9l0.2,0.2l16.1,29l-20,19.8l-0.8,12.6 c-5.4,12.1-12.4,23.3-14.8,28.3l-45,44.6c-0.6,0.4-1.1,0.8-1.4,1.1C130.4,215.5,128.4,216.9,125.7,216.9L125.7,216.9z"></path><path id="infield_sand" class="st6" d="M163.9,166.7l-1-1c-5-16-20-27.7-37.7-27.7s-32.7,11.7-37.7,27.7l-1,1l32.7,32.7 c-0.5,0.9-0.7,1.9-0.7,3c0,3.7,3,6.7,6.7,6.7s6.7-3,6.7-6.7c0-1.1-0.3-2.1-0.7-3L163.9,166.7z M122.5,154.7 c0.8,0.5,1.7,0.8,2.7,0.8s1.9-0.3,2.7-0.8l16.8,16.8c-1.6,1.6-1.6,4.1,0,5.6l2.5,2.5l-17.7,17.7c-1.2-1-2.7-1.6-4.3-1.6 s-3.2,0.6-4.3,1.6l-17.7-17.7l2.5-2.5c1.6-1.5,1.6-4,0-5.6L122.5,154.7z"></path></g><g id="persistent"><g id="mound"><path id="pitching-mound" class="st6" d="M122.5,174.7c-1.5,1.5-1.5,3.9,0,5.4s3.9,1.5,5.4,0c1.5-1.5,1.5-3.9,0-5.4 C126.5,173.2,124,173.2,122.5,174.7z"></path><path id="pitching-rubber" class="st7" d="M123.2,176.6h4v1.6h-4V176.6z"></path></g><g id="lines"><path id="left-foul-line_2_" class="st8" d="M125.2,203.2l-99-99"></path><path id="right-foul-line_2_" class="st8" d="M125.2,203.2l98.4-98.5"></path></g><g id="bases_2_"><rect id="third-base_2_" x="99.2" y="175.1" transform="matrix(0.7073 -0.7069 0.7069 0.7073 -95.3473 122.8833)" class="st9" width="3" height="3"></rect><rect id="first-base_2_" x="148.1" y="175.2" transform="matrix(0.7073 -0.7069 0.7069 0.7073 -81.1078 157.4629)" class="st9" width="3" height="3"></rect><rect id="second-base_2_" x="123.7" y="148.6" transform="matrix(0.707 -0.7073 0.7073 0.707 -69.4796 132.5406)" class="st10" width="3" height="3"></rect><polygon id="home_2_" class="st7" points="126.7,201.8 125.2,203.4 123.7,201.8 123.7,200.3 126.7,200.3  "></polygon></g></g></g></svg><style>
                        .st3{fill:#b2dfdb;}
                        .st4{font-family:'Roboto Condensed';}
                        .st6{fill:#fff; stroke: #e2e2e2; stroke-width: 0.5;}
                        .st7{fill:#c2c2c2;stroke:#FFFFFF;stroke-width:0.75;}
                        .st8{fill:none;stroke:#c2c2c2;stroke-width:0.75;}
                        .st9{fill:#c2c2c2;stroke:#FFFFFF;stroke-width:0.75;stroke-miterlimit:4;}
                        #compass {visibility: hidden;}
                        #distances {visibility: visible;}
                        #TEX .st0{fill:#b2dfdb;}
                        #TEX .st3{fill:#5b5b5b;}
                        #TEX .st0{font-family:'Roboto Condensed';}
                    </style></g></svg>